<svg xmlns="http://www.w3.org/2000/svg" viewBox="0 0 1253.8 806.4"><path fill="#004537" d="m142.5 584.7-.1 1.1-.3 1.2-.2 1.1-.3 1.1-.2 1.2-.3 1.1-.4 1.1-.4 1.1-.4 1.1-.4 1.1-.6 1-.4 1.2-.6.9-.5 1.1-.7 1-.5 1-.8.9-.5 1-.8 1-.7.9-.7.9-.8.9-.9.7-.7.9-.9.8-.8.8-1 .7-1 .7-.9.7-.9.7-1 .6-1 .6-1 .6-1.1.4-1.1.4-1.1.6-1.1.3-1.1.3-1.1.3-1.2.4-1.1.1-1.2.2-1.1.3h-1.2l-1.2-.1-1.1.2-1.2-.1-1.1-.2-1.2-.1-1.2-.2-1.1-.3-1.1-.2-1.2-.3-1.1-.3-1-.6-1.1-.4-1.1-.5-1.1-.4-1-.6-.9-.7-1.1-.5-.9-.7-.9-.8-.9-.8-.9-.7-.8-.9-.7-.9-.9-.7-.7-1-.7-.9-.7-.9-.8-1-.6-.9-.6-1-.5-1.1-.5-1-.5-1.1-.6-1-.3-1.2-.4-1.1-.4-1-.4-1.1-.4-1.2-.3-1.1-.2-1.1-.1-1.2-.3-1.1v-1.2l-.3-1.2v-1.1l-.2-1.2.1-1.2v-2.3l.1-1.2.1-1.1.1-1.2.1-1.2.2-1.1.2-1.2.2-1.1.3-1.2.3-1.1.4-1.1.3-1.1.4-1.1.3-1.1.5-1.1.6-1.1.5-1 .5-1.1.5-1 .7-1 .6-1 .6-.9.6-1 .8-.9.7-.9.8-.9.8-.9.7-.9.9-.8.8-.8.9-.8.9-.7.9-.8.9-.6 1.1-.6.9-.6 1.1-.6.9-.7 1.1-.4 1.1-.5 1.1-.3 1-.6 1.2-.3 1.1-.3 1.1-.3 1.2-.2 1.1-.1 1.2-.3 1.2.1 1.1-.1 1.2-.1 1.2.1 1.1.2 1.2.1 1.2.1 1.1.2 1.1.4 1.1.3 1.1.4 1.1.4 1.1.5 1.1.4 1.1.5 1 .6 1 .6.9.7.9.7 1 .6.9.8.9.8.8.8.7.9.9.8.7 1 .8.9.7.9.6.9.6 1 .6 1.1.5 1 .6 1 .5 1.1.5 1 .4 1.1.4 1.1.3 1.2.4 1.1.5 1 .2 1.2.3 1.1.2 1.2.2 1.1.1 1.2.1 1.2.2 1.1-.1 1.2v2.3l.1 1.2-.2 1.2v1.1l-.1 1.2zM129.3 467v1.2l-.1 1.2-.2 1.1-.1 1.2-.3 1.1-.4 1.1-.2 1.2-.2 1.1-.5 1.1-.3 1.1-.4 1.1-.4 1.1-.6 1-.4 1.1-.6 1-.5 1.1-.6 1-.6 1-.8.9-.6.9-.8.9-.6 1-.8.8-.8.9-.9.8-.8.8-.8.8-1 .7-.9.7-.9.8-.9.7-1 .5-1 .7-1 .5-1 .6-1.1.5-1 .5-1.1.6-1.1.4-1.1.4-1.1.2-1.1.4-1.2.2-1.1.3-1.1.2-1.2.2-1.1.1-1.2.1-1.2.1h-1.1l-1.2-.1h-1.2l-1.1-.1-1.2-.1-1.1-.2-1.2-.2-1.1-.2-1.2-.3-1.1-.3-1.1-.2-1.1-.4-1.1-.5-1.1-.4-1-.5-1.1-.5-1-.6-1-.5-1-.7-1-.5-1-.6-.9-.8-.9-.8-1-.6-.7-.9-.9-.7-.9-.8-.7-.9-.8-.9-.8-.9-.6-.9-.8-.9-.6-1-.6-1-.6-1-.6-1-.5-1.1-.6-1-.4-1.1-.4-1.1-.6-1-.2-1.1-.4-1.1-.3-1.2-.3-1.1-.3-1.1-.1-1.2-.3-1.1-.1-1.2-.1-1.1-.1-1.2-.1-1.2-.1-1.1.1-1.2.2-1.2v-1.1l.1-1.2.2-1.1.2-1.2.2-1.1.2-1.2.3-1.1.2-1.2.4-1.1.3-1.1.5-1.1.5-1 .4-1.1.5-1 .5-1.1.7-1 .6-1 .6-.9.7-1 .6-1 .8-.8.7-1 .8-.8.8-.9.7-.9.9-.8.9-.7.8-.8 1-.7.9-.7 1-.7.9-.7 1-.6 1-.5 1-.6 1.1-.5 1-.5 1.1-.4 1.1-.5 1.1-.4 1.1-.2 1.1-.4 1.2-.3 1.1-.3 1.1-.1 1.2-.2 1.2-.1 1.1-.2h3.5l1.2.1h1.1l1.2.1 1.2.2 1.1.3 1.2.1 1.1.4 1.1.2 1.1.4 1.1.4 1.1.3 1.1.4 1.1.6 1 .4 1.1.5.9.7 1.1.5 1 .7.9.7 1 .6.8.8 1 .7.8.9.8.8.9.7.8.9.8.8.6 1 .7 1 .7.9.8.9.6 1 .6 1 .5 1 .6 1 .5 1.1.5 1 .3 1.2.5 1 .4 1.1.4 1.1.2 1.2.3 1.1.3 1.1.2 1.2.2 1.1.2 1.1v1.2l.2 1.2v1.1l-.1 1.2.1 1.2zm161.5 7.9-.1 1.2-.1 1.1v1.2l-.2 1.1-.3 1.2-.1 1.1-.3 1.1-.3 1.2-.4 1.1-.4 1-.4 1.1-.6 1.1-.4 1-.5 1.1-.6 1-.6 1-.5 1-.8.9-.7 1-.6.9-.8.9-.8.8-.8.9-.8.8-.9.8-.9.7-.9.7-.9.8-1 .6-.9.7-1 .6-1 .5-1.1.5-1 .6-1 .5-1.1.4-1.1.4-1.1.5-1.1.2-1.1.3-1.1.4-1.2.1-1.1.3-1.2.1-1.1.1-1.2.1-1.2.2-1.1-.1-1.2-.1-1.1.1-1.2-.1-1.2-.1-1.1-.2-1.2-.2-1.1-.1-1.1-.4-1.1-.3-1.1-.3-1.2-.3-1-.5-1.1-.4-1.1-.5-1.1-.4-1-.6-.9-.7-1.1-.5-.9-.7-1-.6-.9-.7-.9-.7-.9-.8-.9-.7-.9-.8-.7-.9-.8-.8-.8-.9-.7-.9-.7-.9-.7-1-.6-1-.7-.9-.5-1-.6-1.1-.5-1-.5-1.1-.4-1-.3-1.2-.4-1.1-.3-1.1-.3-1.1-.2-1.1-.3-1.2-.2-1.1-.1-1.2-.1-1.1v-1.2l-.1-1.1v-1.2l.1-1.2v-1.1l.1-1.2.3-1.1.2-1.2.2-1.1.2-1.1.3-1.2.4-1.1.4-1.1.4-1 .5-1.1.5-1.1.5-1 .6-1 .6-1 .6-1 .7-.9.6-1 .8-.9.7-.9.8-.8.8-.9.8-.8.9-.7.8-.9 1-.7.9-.6 1-.7 1-.6.9-.6 1-.6 1.1-.5 1-.6 1-.5 1.1-.4 1.1-.4 1.1-.4 1.1-.3 1.1-.3 1.2-.3 1.1-.3 1.1-.2 1.2-.2h1.1l1.2-.2h1.2l1.1-.1h1.2l1.1.2h1.2l1.2.1 1.1.2 1.1.2 1.2.2 1.1.3 1.1.3 1.2.2 1 .5 1.2.3 1 .5 1.1.5 1 .5 1 .6 1.1.5.9.6 1 .7 1 .6.9.7.9.7.9.8.9.7.8.9.9.7.7.9.7.9.8.9.8.9.6 1 .6 1 .7.9.6 1 .4 1.1.5 1 .6 1.1.4 1 .4 1.1.4 1.1.3 1.1.2 1.2.2 1.1.3 1.2.2 1.1.1 1.2.2 1.1.1 1.2-.1 1.1zm55.8 94.1-.2 1.1-.4 1.1-.2 1.2-.4 1.1-.4 1.1-.4 1.1-.3 1.1-.4 1.1-.5 1.1-.6 1-.5 1.1-.6 1-.5 1-.7.9-.6 1.1-.7.9-.8.9-.6 1-.8.8-.7.9-.9.8-.8.8-.9.8-.9.8-.9.7-1 .6-.9.7-1 .7-.9.6-1 .6-1 .6-1.1.5-1 .6-1.1.4-1.1.5-1.1.3-1.1.4-1.1.3-1.2.2-1.1.3-1.2.3h-1.1l-1.2.1-1.2.1-1.1.1h-1.2l-1.2-.1h-2.3l-1.1-.2-1.2-.3-1.1-.3-1.2-.3-1.1-.3-1.1-.3-1.1-.4-1.1-.5-1.1-.3-1-.5-1.1-.6-1-.6-1-.6-1-.6-.9-.7-1-.7-.8-.7-.9-.8-.9-.8-.8-.8-.9-.8-.7-.9-.8-.9-.7-.9-.7-.9-.7-1-.5-1-.8-.9-.5-1.1-.6-1-.5-1-.4-1.1-.4-1.1-.4-1.1-.5-1.1-.3-1.1-.4-1.1-.2-1.2-.2-1.1-.4-1.1-.1-1.2-.1-1.2-.1-1.1-.1-1.2-.2-1.1v-3.5l.1-1.2.1-1.2.1-1.1.2-1.2.3-1.1.2-1.2.3-1.1.3-1.2.3-1.1.3-1.1.4-1.1.5-1.1.3-1.1.6-1 .5-1.1.4-1.1.7-1 .6-1 .7-.9.5-1 .8-.9.7-.9.8-.9.6-1 .9-.8.8-.9.8-.7.9-.8.8-.9 1-.6.8-.8 1-.7.9-.7 1-.6 1-.6 1.1-.5 1-.6 1.1-.4 1-.5 1.2-.4 1-.4 1.2-.3 1.1-.3 1.1-.3 1.2-.2 1.1-.3 1.2-.2 1.1-.1 1.2-.1h1.2l1.1.1 1.2-.1 1.2.1 1.1.1 1.2.1 1.1.3 1.2.2 1.1.3 1.1.4 1.2.3 1.1.4 1.1.4 1 .5 1.1.5 1 .5 1.1.5.9.7 1 .7.9.6 1 .7.9.8.9.7.9.7.9.8.6 1 .9.8.7.9.8.9.6 1 .8.9.5 1 .6 1 .6 1 .6 1 .6 1 .4 1.1.4 1.1.4 1.1.3 1.1.4 1.1.4 1.1.3 1.2.2 1.1.2 1.2.2 1.1.2 1.2.1 1.1v1.2l.2 1.2v1.1l-.1 1.2.1 1.2-.1 1.1-.2 1.2-.1 1.2-.1 1.1zm-104.5-.1v1.2l-.1 1.1-.2 1.2-.2 1.1-.2 1.2-.3 1.1-.4 1.1-.3 1.2-.4 1.1-.5 1.1-.4 1.1-.6 1-.5 1-.5 1.1-.8.9-.5 1-.7.9-.8 1-.8.8-.8.9-.8.8-.9.7-.9.9-1 .6-.9.7-1 .7-1 .5-1 .6-1.1.4-1.1.4-1.1.5-1.1.3-1.1.3-1.2.3-1.1.1-1.2.1-1.2.1-1.1.1-1.2-.1-1.2-.1-1.1-.1-1.2-.2-1.1-.4-1.2-.2-1.1-.3-1.1-.5-1-.6-1.1-.4-1-.6-1-.7-1-.6-.9-.6-.9-.8-.8-.8-.9-.9-.8-.8-.8-.8-.8-.9-.6-1-.7-1-.6-1-.5-1-.7-1-.5-1-.4-1.2-.5-1-.3-1.2-.4-1.1-.3-1.1-.2-1.1-.3-1.2-.1-1.1-.2-1.2-.2-1.2v-1.1l-.1-1.2.1-1.2.1-1.1.1-1.2.1-1.2.1-1.1.3-1.2.2-1.1.3-1.2.3-1.1.4-1.1.4-1.1.4-1.1.5-1.1.4-1 .6-1.1.6-1 .7-.9.6-1 .8-.9.7-1 .7-.9.8-.8.9-.8.8-.8 1-.7.9-.8 1-.6.9-.7 1-.6 1.1-.5 1-.5 1.1-.4 1.1-.5 1.1-.2 1.2-.4 1.1-.2 1.2-.2 1.1-.2 1.2.1 1.2-.1 1.1.1 1.2.1h1.2l1.1.3 1.2.2 1.1.3 1.1.5 1.1.4 1 .5 1.1.5 1.1.5.9.7 1 .7.9.7.9.7.9.8.9.8.8.8.8.9.7.9.7.9.6 1 .7 1 .5 1.1.6 1 .5 1 .4 1.1.4 1.1.5 1.1.3 1.1.3 1.1.4 1.2.1 1.1.2 1.2.1 1.2.1 1.1.1 1.2v1.2l.1 1.1z"/><path fill="none" stroke="#004537" stroke-miterlimit="10" stroke-width="4.5" d="m116.5 473.1 1.1.3 1 .6 1.2.3 1 .5 1.1.4 1 .6 1.1.5 1.1.4.8.9 1.1.5 1 .6 1 .4.9.8 1.1.5.9.7 1.2.4.7 1 .9.6 1 .7 1.1.4.8 1 .9.7.8.8 1 .6.8.9.9.7.8.9 1 .6.5 1.1 1 .8.7.9.8.8.6 1 .8.9 1 .7.4 1.1.9.8.6 1 .9.8.7.9.4 1.1.8.9.7.9.4 1.2.7.9.4 1.1.8.9.6 1 .5 1.1.5 1 .6 1 .4 1.1.8.9.3 1.1.7 1 .2 1.2.8.9.2 1.2.7.9.1 1.3.8.9.2 1.2.5 1 .6 1 .3 1.2.2 1.1.5 1.1.5 1 .4 1.1.5 1.1.1 1.2.4 1.1.2 1.2.5 1 .3 1.1.3 1.1.4 1.2.5 1v1.2l.5 1.1.2 1.1.5 1.1-.1 1.2.3 1.2.6 1 .3 1.1-.1 1.2.3 1.2.3 1.1.2 1.1.6 1.1-.1 1.2.5 1.1v1.2l.2 1.1.5 1.1-.1 1.2.2 1.1.6 1.1.1 1.2-.1 1.2.5 1.1.2 1.1v1.2l.4 1.1v1.2l.3 1.1-.1 1.2.4 1.1-.1 1.2.1 1.2.1 1.1.3 1.2.4 1.1v1.1l.2 1.2.3 1.1-.2 1.2.1 1.2.2 1.1.1 1.2.3 1.1v2.4l.2 1.1.2 1.2v1.2l.1 1.1.2 1.2v2.3l.2 1.1.3 1.2-.1 1.2.1 1.1v2.3l.4 1.2-.1 1.2.3 1.1-.3 1.2.4 1.1v1.2l-.1 1.2.3 1.1-.3 1.2.5 1.1-.3 1.2.2 1.2.2 1.1v1.2l-.1 1.2.3 1.1-.2 1.2.1 1.2-.1 1.2-.1 1.1.3 1.2.2 1.1-.1 1.2-.1 1.2v1.1l.3 1.2-.4 1.2.1 1.1.2 1.2-.2 1.2.4 1.1v1.2l-.1 1.2-.1 1.2v2.3l.2 1.2v1.1l-.3 1.2.4 1.2-.3 1.1.3 1.2-.3 1.2.1 1.2v1.1l-.2 1.2.3 1.2m-47.8-96.5 1.1-.1 1.2.2 1 .5 1.1.5.8.8.7.9.8.8.6 1 .7 1 .5 1 .5 1.1.5 1 .4 1.1.5 1.1.3 1.1.5 1 .3 1.1.3 1.2.4 1 .2 1.2.4 1.1.2 1.1.4 1.1.3 1.1.2 1.2.2 1.1.3 1.1.3 1.1.2 1.2.4 1.1v1.1l.4 1.2.2 1.1.2 1.1.2 1.2.3 1.1.2 1.1v1.2l.3 1.1.2 1.2.2 1.1.2 1.2.1 1.1.1 1.2.3 1.1.2 1.1.1 1.2.1 1.1.3 1.2v1.1l.3 1.2.1 1.1v1.2l.3 1.1v1.2l.3 1.1.2 1.2v1.1l.2 1.2.2 1.1v2.3l.4 1.2-.1 1.1.3 1.2v1.1l.1 1.2.1 1.1.1 1.2.1 1.1.2 1.2v1.2l.3 1.1v1.2l.1 1.1.1 1.2.2 1.1v1.2l.2 1.2v2.3"/><path fill="none" stroke="#004537" stroke-miterlimit="10" stroke-width="4.5" d="m195.2 558.9-1.1-.5-1-.5-1.2-.3-1.1-.1h-1.2l-1.2-.1h-1.1l-1.2.4-1 .4-1.1.5-.9.7-1 .7-.7.9-.8.9-.7.9-.6 1-.6 1-.5 1.1-.5 1-.5 1-.5 1.1-.4 1.1-.4 1.1-.6 1-.3 1.1-.2 1.2-.4 1.1-.3 1.1-.3 1.1-.4 1.2-.3 1.1-.2 1.1-.2 1.2-.2 1.1-.4 1.1-.1 1.2-.4 1.1-.1 1.2-.1 1.1-.3 1.1-.1 1.2-.4 1.1v1.2l-.1 1.2-.3 1.1-.3 1.1-.1 1.2-.1 1.2-.1 1.1-.1 1.2-.3 1.1-.2 1.2v1.1l-.2 1.2-.2 1.2v2.3l-.2 1.1-.3 1.2-.1 1.1v1.2l-.2 1.2v2.3l-.2 1.1-.1 1.2-.1 1.2-.1 1.1-.1 1.2v2.3l-.3 1.2v1.1l-.2 1.2.1 1.2-.1 1.1v1.2l-.3 1.2v3.5l-.1 1.1v1.2l-.2 1.2-.1 1.1.1 1.2-.1 1.2-.2 1.1v1.2l-.1 1.2.1 1.1-.2 1.2v2.4l-.2 1.1m65.5-172.6-.6 1-.4 1.1-.6 1-.5 1.1-.4 1.1-.6 1-.2 1.1-.6 1.1-.3 1.1-.5 1-.4 1.1-.4 1.1-.5 1.1-.5 1-.3 1.2-.6 1-.3 1.1-.3 1.1-.5 1.1-.2 1.2-.4 1-.3 1.2-.5 1-.3 1.2-.3 1.1-.5 1-.1 1.2-.3 1.2-.3 1.1-.7 1-.1 1.2-.2 1.1-.6 1.1-.2 1.1-.2 1.2-.1 1.1-.3 1.2-.3 1.1-.5 1.1-.1 1.1-.3 1.2-.1 1.1-.5 1.1-.1 1.2-.3 1.1-.1 1.2-.3 1.1-.2 1.1-.3 1.2-.1 1.1-.1 1.2-.2 1.1-.1 1.2-.3 1.1-.4 1.2v1.1l-.1 1.2-.3 1.1-.1 1.2-.2 1.1-.3 1.2.1 1.1-.2 1.2-.2 1.1-.2 1.2v2.3l-.1 1.2-.1 1.2-.1 1.1-.2 1.2-.3 1.1v1.2l-.2 1.1.2 1.2-.1 1.2v1.2l-.3 1.1-.2 1.2.3 1.1-.3 1.2-.2 1.1.1 1.2.2 1.2-.3 1.1v1.2l-.2 1.2.2 1.1-.1 1.2.2 1.2-.3 1.1.3 1.2-.1 1.2v2.3l-.2 1.2-.1 1.1v1.2l.3 1.1v1.2l-.2 1.2.2 1.1v1.2l-.1 1.2.1 1.1v1.2l.2 1.1-.1 1.2.2 1.2.1 1.1-.3 1.2.1 1.2.4 1.1-.3 1.2.3 1.1.1 1.2.1 1.1-.1 1.2.1 1.2.1 1.1v1.2l.1 1.2.1 1.1.1 1.2.1 1.2.1 1.1.3 1.2v1.1l.3 1.2v2.3l.5 1.1v1.2l-.1 1.1.2 1.2.3 1.1.2 1.2.1 1.1.2 1.2-.1 1.1.3 1.2.2 1.1.2 1.2.2 1.1.2 1.1v1.2l.4 1.1-.1 1.2.4 1.1v1.2m79.6-98.3-1.1-.3-1.1-.4-1.1-.4-1.2-.3-1.1-.1-1.2-.2-1.1-.2-1.2-.1h-1.1l-1.2-.1h-1.1l-1.2.3-1.1.1-1.2.2-1.1.3-1.1.5-1.1.3-1 .5-1.1.5-1 .5-1 .7-1 .6-.9.7-.9.7-.9.8-.8.8-.9.8-.7.9-.8.8-.8.9-.8.9-.6 1-.8.8-.5 1-.7 1-.8.9-.6 1-.5 1-.6 1-.6 1-.6 1-.4 1.1-.7.9-.5 1-.5 1.1-.4 1.1-.5 1.1-.6 1-.3 1.1-.6 1-.4 1.1-.4 1.1-.3 1.1-.5 1-.4 1.1-.5 1.1-.2 1.1-.5 1.1-.4 1.1-.3 1.1-.3 1.1-.4 1.1-.4 1.1-.2 1.2-.5 1-.2 1.2-.4 1.1-.2 1.1-.5 1.1-.1 1.1-.5 1.1-.2 1.2-.2 1.1-.3 1.1-.3 1.2-.2 1.1-.4 1.1-.3 1.1-.1 1.2-.2 1.1-.4 1.1-.3 1.2v1.1l-.3 1.2-.3 1.1-.4 1.1-.1 1.2-.3 1.1-.1 1.2-.1 1.1-.4 1.1-.1 1.2-.1 1.2-.4 1.1-.2 1.1-.2 1.2-.1 1.1-.3 1.2-.1 1.1-.2 1.2-.2 1.1-.1 1.2-.2 1.2-.2 1.1-.2 1.2-.1 1.1"/><path fill="none" stroke="#01866a" stroke-linecap="round" stroke-miterlimit="10" stroke-width="2.25" d="m115.7 565.3-.9-.1H113l-.9.1-.9.3-.8.3-.8.5-.8.5-.7.5-.7.6-.6.6-.6.7-.5.7-.6.8-.5.7-.5.8-.4.8-.5.8-.4.8-.3.8-.4.8-.3.9-.3.8-.3.9-.3.9-.2.8-.2.9-.2.9-.3.9-.1.9-.1.9-.2.9-.1.9-.1.9-.1.9v.9l-.1.9v2.7l.1.9v.9l.1.9m5.3-136.6-.6-.6-.8-.5-.8-.5-.8-.3-.8-.4-.9-.3-.9-.2-.8-.4-.9-.1-.9-.1-.9-.1-.9-.1-.9-.1h-.9l-.9.2h-.9l-.9.2-.9.2-.9.2-.8.3-.8.4-.8.4-.9.4-.7.5-.8.5-.6.6-.8.6-.6.6-.6.7-.6.7-.5.7-.5.8-.5.8-.5.7-.4.9-.4.7-.4.8-.3.9-.4.8-.3.9-.3.8-.3.9-.2.9-.2.9-.2.9-.3.8-.2.9-.1.9m131.3 77.8h1.9l.8.2.9.2.9.2.9.3.9.3.8.3.9.4.8.4.8.5.8.4.7.5.8.5.7.6.7.6.7.6.7.7.6.6.5.8.5.7.6.8.4.8.4.9.3.8.3.9.2.9.2.9.2.9v.9l.1.9-.1.9v1.9l-.2.9-.2.9-.1.9-.2.9-.3.9-.3.8-.2.9m75.7-33.1.9-.1h1.8l.9.1.9.1.9.1.9.1.9.3.9.2.8.2.9.3.8.4.9.3.8.4.7.5.8.5.8.5.7.6.6.6.7.6.5.8.7.6.5.7.5.8.4.8.5.8.4.8.4.8.4.9.3.8.2.9.3.8.2.9.3.9.1.9.2.9.1.9.2.9.1.9.1.9.1.9v.9l.1.9v3.7m-86.9-106.4.5-.7.8-.5.7-.5.8-.5.8-.4.9-.3.8-.4.9-.3.9-.2.8-.3.9-.3.9-.3h.9l.9-.3.9-.1.9-.2.9-.1.9-.1h.9l.9-.1h.9l.9-.1h1.9l.9.2.9.1h.9l.9.1.9.2.9.1.9.2.9.3.8.2.9.3.9.3.8.4.8.4.9.3.8.5.7.5.7.6.7.6.6.6.7.7.5.7.6.7"/><path fill="#153159" d="M318.3 739v1.2l.2 1.1-.4 1.2.3 1.2v1.1l-.1 1.2-.3 1.1.3 1.2v1.1l.1 1.2-.1 1.1-.1 1.2-.3 1.2.4 1.1v1.2l-.5 1.1.4 1.2-.4 1.1.1 1.2.2 1.2-.1 1.1.2 1.2-.3 1.1-.1 1.2-.1 1.1.1 1.2.2 1.2.1 1.1-.3 1.2.3 1.2v1.1l-.6 1.2.1 1.1.2 1.2-.4 1.2-.2 1.1-.1 1.3-.4 1.1-.4 1.1-.8.9-.5 1.1-.7 1-.6 1.1-.8.8-1 .7-1.1.5-.7 1-.9.8-1.3.2-1.1.4-1 .7-1.1.4-1.2.3-1.2.1-1.1-.1-1.2.2-1.2.1-1.1.1-1.2-.4-1.2.1-1.1-.1H293l-1.1.4-1.2-.2-1.2.3-1.1-.2h-2.3l-1.2-.3-1.2.4-1.1-.1-1.2.2-1.2-.1-1.1-.4-1.2.3-1.1-.2h-1.2l-1.2.3-1.1.1-1.2-.4-1.1.4h-2.4l-1.1-.2-1.2-.2-1.1.3-1.2.1-1.2-.1-1.1-.4h-1.2l-1.1.1-1.2.3-1.1.1-1.2-.2-1.2-.3h-1.1l-1.2.2-1.1.1h-1.2l-1.1-.1-1.2.1-1.2-.2-1.1.2-1.2-.1-1.1.1-1.2-.3-1.1.3h-1.2l-1.2.1-1.1-.4-1.2.3-1.1-.3-1.2.5-1.2-.1h-1.1l-1.2-.4-1.1.4h-1.2l-1.2-.2-1.1-.2-1.2-.1-1.2.6-1.1-.1-1.2-.2-1.1.2-1.2.1-1.2-.5-1.1.1-1.2.1-1.1.2-1.2-.1-1.2-.1-1.1-.1-1.2.3-1.1-.2H206l-1.1.3-1.2-.2-1.1.1-1.2-.3-1.2.2-1.1-.1h-1.2l-1.2.1-1.1.2-1.2-.2-1.1.2-1.2-.4-1.2.2-1.1-.2-1.2.1-1.2.2-1.1-.5-1.2.6-1.1-.4-1.2.3-1.2-.4h-1.1l-1.2.3-1.1.1-1.2.1-1.2-.1h-1.1l-1.2-.3-1.2.3-1.1-.1h-2.4l-1.1-.2h-1.2l-1.1.2-1.2-.2-1.2-.1h-1.1l-1.2.4-1.2-.4-1.1.3H156l-1.1-.2-1.2-.1-1.1.4-1.2.1-1.2-.1h-1.1l-1.2.1h-1.2l-1.1-.1-1.2-.3-1.2.2-1.1-.2-1.2-.1h-1.2l-1.1.3h-1.2l-1.1.2h-1.2l-1.2-.4-1.1.2-1.2.1-1.2-.3-1.1.2h-1.2l-1.1.1-1.2-.1-1.2.2-1.1-.5-1.2.4h-1.2l-1.1-.1-1.2-.1-1.2-.3-1.1.3-1.2-.1-1.2-.1-1.1.3-1.2-.2-1.2.1-1.1.2-1.2-.3-1.2.1-1.1-.2-1.2.1h-1.2l-1.1.4h-1.2l-1.2-.4-1.1.3-1.2-.3-1.2.3-1.2-.2-1.1-.1h-1.2l-1.2-.1-1.2.4-1.1-.6-1.2-.3h-1.2l-1.1-.5-.9-.8-1.1-.6-1.1-.4-.8-.8-.8-.9-1-.8-.9-.7-.6-1-.8-.9-.5-1.1-.7-1-.5-1-.1-1.3-.5-1-.1-1.2-.4-1.2.1-1.1v-1.2l-.4-1.2v-1.1l.1-1.2.2-1.1-.2-1.2.3-1.1-.3-1.2.1-1.1.1-1.2-.1-1.2-.1-1.1-.3-1.2-.1-1.1.1-1.2.1-1.1.2-1.2-.3-1.2-.1-1.1.2-1.2.2-1.1-.3-1.2.2-1.2-.1-1.1-.2-1.2.2-1.1.1-1.2-.4-1.1.3-1.2.1-1.2-.3-1.1.2-1.2-.1-1.2.1-1.1-.1-1.1.5-1.1.5-1 .2-1.2.9-.8.4-1 .6-1 .6-1 .9-.7.4-1.2.9-.7.4-1.2.8-.9.8-.8.7-.9.4-1.2 1-.7.6-1 .4-1.1.9-.8.5-1 .9-.8.7-.9.7-1 .5-1.1 1-.7.5-1 .8-.9.4-1.2.8-.8.6-1 .9-.8.8-.8.6-1 .5-1.1 1-.8.5-1.1.8-.8.4-1.1.7-.9.8-.9.8-.8.4-1.2 1-.7.3-1.3 1.1-.6.7-1 .4-1.1.9-.8.5-1.1.5-1 .7-.9 1.1-.7.5-1.1.6-1 .7-.9 1-.8.3-1.2.8-.9.6-.9 1-.7.4-1.2 1-.8.7-.9.6-1 .6-1 .4-1.1 1-.8.8-.8.5-1.1.5-1.1.7-.9 1-.7.5-1.1.9-1 .5-1.2 1.3.3 1.1.1h1.2l1.2.1 1.1-.2 1.2.2 1.2-.3h1.2l1.1-.1h1.2l1.2.2 1.1-.1 1.2.1h1.2l1.1.3 1.2-.4 1.2.1 1.1.3 1.2-.1 1.2.3 1.1-.4 1.2.2 1.2-.2h1.1l1.2.3 1.2.2 1.1-.4 1.2.1 1.2.2 1.1-.1 1.2.2 1.2.1 1.1-.3 1.2.3 1.2-.1 1.1-.2 1.2.4 1.2.1 1.2-.3 1.1-.1h2.4l1.1.3 1.2-.1 1.2.3 1.1-.3 1.2-.2 1.2.1 1.2.3 1.1-.2 1.2.4 1.2-.3 1.1.1 1.2.1 1.2.1h1.2l1.1-.2h1.2l1.2.3 1.2-.1h1.1l1.2-.2 1.2-.1 1.1.1 1.2.2 1.2-.2 1.1-.1 1.2.2 1.2.2 1.2-.3 1.1-.1h1.2l1.2.3 1.1-.2h1.2l1.2-.1 1.1-.3 1.2.3 1.2-.3 1.1.4 1.2-.3 1.2-.1 1.1.3 1.2-.3h1.2l1.1-.1h1.2l1.2.3 1.1-.2 1.2-.2 1.2.3 1.1-.4h1.2l1.2.2h1.1l1.2.1 1.2-.4 1.2.4 1.1-.3 1.2-.1h1.2l1.1.1 1.2.2 1.2-.4 1.1.2 1.2-.1 1.2-.1 1.2.3 1.1-.3 1.2-.1 1.2.3 1.1.1 1.2-.4h1.2l1.1.1 1.2.2 1.2-.4h1.2l1.1-.2 1.2.3 1.2.1h1.1l.6 1 .8 1 .6 1 1 .7.6 1 .5 1.1.8.9.7.9.7 1 .7.9.6 1 .8.9.5 1 .9.8.8.9.4 1.1.7 1 .7.9.9.7.8.9.4 1.1.5 1.1.9.7.8.9.5 1.1.9.8.6 1 .5 1.1.8.8.8.8.5 1.1.9.8.6 1 .8.9.3 1.1 1.1.7.6 1 .5 1.1.9.8.7.9.3 1.2.9.8.7 1 .6 1 .8.8.8.9.6 1 .8.8.3 1.2 1.1.7.7.9.4 1.2.6 1 .7 1 .7.9.9.7.8.9.7 1 .3 1.2.6 1 .9.8.7.9.6 1 .7 1 .7.9.6 1 .9.8.8.9.5 1 .5 1 1 .8.2 1.2.6.9.2 1.2.7.9-.2 1.2z"/><path fill="none" stroke="#0077c8" stroke-linecap="round" stroke-miterlimit="10" stroke-width="4.5" d="m91.8 711.5.8.8.8.9.7.9.9.8.6 1 .9.8.6 1 .7.9.6 1 .7.9.7.9.6 1 .6 1 .7.9.5 1.1.6 1 .6 1 .5 1.1.6 1 .4 1 .5 1.1.4 1.1.5 1 .4 1.1.6 1 .5 1.1.3 1.1.3 1.1.4 1.1.5 1.1.2 1.1.4 1.1.4 1.2.3 1.1.2 1.1.4 1.1.2 1.2.3 1.1.2 1.1.3 1.2.3 1.1.2 1.1.1 1.2.1 1.1.2 1.2.4 1.1v1.2l.2 1.1.2 1.2v1.2l.1 1.1.2 1.2.1 1.1.1 1.2v2.3l.2 1.2-.1 1.1.2 1.2-.1 1.2.1 1.1v2.4l.1 1.1-.1 1.2v1.2l.1 1.1-.1 1.2-.1 1.1v1.2l-.1 1.2-.1 1.1v1.2l-.1 1.2-.2 1.1.1 1.2m-4.1-107.9 1.1.2 1.2.2 1 .4 1.2.1 1.1.4 1.1.2 1.1.3 1.2.3 1 .5 1.2.2 1 .5 1.1.3 1 .6 1.2.3 1 .4 1.1.4 1 .6 1.1.4 1 .6 1.1.4 1 .5 1 .7 1 .5 1 .6.9.8.9.7 1 .6.9.7.8.8 1 .6.8.9.7.9.8.8.6 1 .8.9.5 1 .4 1.1.6 1.1.2 1.1.4 1.1.3 1.1.4 1.1.2 1.1.4 1.1.1 1.2.2 1.1.3 1.2.2 1.1.3 1.1.1 1.2v1.2l.2 1.1.1 1.1.3 1.2.2 1.1.1 1.2.2 1.1.2 1.2.2 1.1.2 1.1.2 1.2.2 1.2.2 1.1.1 1.2.1 1.1.3 1.1.4 1.2.1 1.1.4 1.1.4 1.1.2 1.2.5 1 .3 1.2.3 1.1.5 1 .6 1 .5 1 .6 1 .5 1.1.8.8.6 1 1 .8.8.8.7 1 .9.7.9.8.9.7 1.1.5.8.9 1.1.5.9.8 1 .6 1 .5 1 .7 1 .6 1 .5 1 .7 1.1.5.9.7 1.1.4 1 .8 1.1.4.9.7 1.1.5 1 .5 1 .7 1.1.5 1 .7 1 .5 1.1.5.9.8 1.1.5.9.7.9.8 1 .6.9.7.9.7 1 .7.7.9.8.9.8.8.7 1 .7.9.5 1.1.5 1.1.2 1.2.5 1.1.3 1.1.2 1.2.4 1.1.3 1.2.1 1.1m64.3 0 .3-1.1V792l.2-1.2-.2-1.1v-1.2l.1-1.2-.1-1.1v-2.4l.2-1.2-.3-1.1.2-1.2-.3-1.1.1-1.2-.1-1.2-.2-1.1-.2-1.2v-1.2l-.1-1.1-.5-1.1.1-1.2-.4-1.1-.3-1.1-.1-1.2-.6-1.1-.1-1.1-.6-1.1-.2-1.1-.5-1.1-.4-1.1-.7-1-.3-1.1-.6-1-.5-1-.5-1.1-.8-.9-.5-1.1-.8-.8-.7-.9-1-.7-.7-1-1-.6-.9-.7-1-.6-1.1-.6-.8-.8-1.1-.4-1-.7-1-.7-1-.5-.9-.8-1.1-.5-1-.5-1.1-.6-.8-.8-1.1-.5-1-.6-1-.6-.9-.7-1.2-.4-.9-.8-.9-.7-1.1-.4-1-.7-1-.7-.9-.8-1-.5-1-.7-.9-.6-1-.8-1-.5-.8-.9-.9-.8-.9-.7-.9-.8-1-.6-.7-1-.9-.7-.9-.9-.7-.9-.5-1-.7-.9-.6-1-.4-1.1-.3-1.2-.5-1-.4-1.1-.2-1.1-.3-1.1-.1-1.2-.2-1.1-.2-1.2-.2-1.1-.2-1.1.1-1.2-.3-1.2.2-1.1-.1-1.2v-1.1l-.3-1.2v-2.3l.1-1.1.1-1.2-.2-1.2.2-1.1.1-1.2v-1.1l.2-1.2-.2-1.1.1-1.2.3-1.1-.2-1.2.1-1.2.2-1.1v-1.2l.3-1.1v-1.2l.2-1.1.1-1.2.2-1.1v-2.4l.4-1.1.1-1.1.1-1.2.1-1.1.2-1.2v-1.1l.2-1.2.1-1.2.2-1.3-.1-1.3.3-1.2m93.4 60.9-1.2.1-1.2.1h-2.3l-1.1.1h-1.2l-1.1.1-1.2-.1h-1.2l-1.1-.1-1.2-.1h-1.1l-1.2-.1-1.1-.2h-1.2l-1.1-.3-1.2-.2-1.1-.1-1.2-.2-1.1-.3-1.1-.2-1.1-.3-1.2-.3-1.1-.3-1.1-.3-1.1-.4-1.1-.5-1-.4-1.1-.5-1-.5-1.1-.5-1-.6-.9-.7-.9-.7-1-.7-.8-.8-.9-.8-.7-.8-.7-1-.8-.9-.6-1-.5-1-.6-1-.5-1.1-.4-1.1-.5-1-.4-1.1-.4-1.1-.4-1.1-.4-1.1-.4-1.1-.3-1.2-.3-1.1-.3-1.1-.2-1.2-.2-1.1-.3-1.1-.2-1.2-.3-1.1-.2-1.2-.2-1.1-.1-1.2-.3-1.2v-1.1l-.2-1.2-.2-1.1-.2-1.2v-1.2l-.2-1.1-.2-1.2-.1-1.1-.1-1.2v-1.2l-.2-1.1-.1-1.2v-1.2l-.2-1.1-.1-1.2-.1-1.1v-.4m37.2 128.9-.1-1.1v-2.3l-.1-1.1v-3.4l.1-1.2v-1.1l-.1-1.2.1-1.1v-1.1l.1-1.2v-1.1l.1-1.2.1-1.1.1-1.1.1-1.2.1-1.1.1-1.2.1-1.1.2-1.1.2-1.1.2-1.2.3-1.1.3-1.1.4-1 .4-1.1.6-1 .6-1 .6-1 .7-1 .7-.9.7-1 .8-.8.7-1 .8-.9.8-.8.8-.9.8-.8.8-.8.9-.8.9-.8.8-.8.9-.8.9-.8.9-.7.9-.8.9-.7.9-.8.9-.7.9-.8 1-.7.9-.7.9-.7"/><path fill="#0d243f" d="m276.1 677-1-.1-1.2.1-1.2.1-1.1-.2h-1.2l-1.1.2h-1.2l-1.1.1-1.2-.3-1.2.2-1.1-.2-1.2.2h-1.1l-1.2-.2h-1.1l-1.2.1-1.2.1-1.1-.1h-1.2l-1.2-.1h-1.1l-1.2-.1-1.1.1h-2.4l-1.1.2-1.2-.1-1.2-.2-1.1.1-1.2.2h-2.3l-1.2-.1h-1.1l-1.2.2-1.1-.1-1.2.1-1.2-.3H231l-1.2.3-1.1-.1-1.2.1-1.2-.3-1.1.3-1.2-.2-1.1-.1-1.2.2-1.2-.1h-1.1l-1.2-.2-1.2.1-1.1.2-1.2.1-1.1-.3-1.2.3-1.2-.3-1.1.2-1.2-.2-1.2.3-1.1-.3-1.2.1h-1.1l-1.2.2-1.2-.3-1.1.2h-1.2l-1.2-.2-1.1.2-1.2-.2h-1.2l-1.1.2-1.2-.1-1.1-.1-1.2.3h-1.2l-1.1-.3h-2.4l-1.1.2h-1.2l-1.1-.1-1.2.1h-2.3l-1.2-.2-1.2.2-1.1-.1-1.2.2h-1.2l-1.1-.3-1.2.2h-1.2l-1.1-.3-1.2.3-1.2.1-1.1-.1-1.2-.2h-1.1l-1.2.2-1.2-.2h-2.3l-1.2.1-1.1.1h-1.2l-1.1.1h-1.2l-1.2-.1-1.1-.2h-1.2l-1.2-.1-1.1.1-1.2.2-1.2.1-1.1-.3h-3.5l-1.2.3-1.2-.3-1.1.1-1.2-.1-1.2.1h-1.1l-1.2-.1-1.2.1h-1.1l-1.2-.1-1.2.2-1.1-.2-1.2.3-1.2-.2h-1.1l-1.2-.1h-1.2l-1.2.2-1.1-.1.8-.8.6-1 .7-.9.6-1 .8-.9.4-1.1.7-1 .9-.7.6-1.1.8-.8 1.1-.1 1.1-.1 1.2.2h2.3l1.2-.1h1.2l1.1.2 1.2-.3 1.2.3 1.1-.2h1.2l1.1-.1 1.2.3 1.2-.3 1.1.1 1.2.2 1.2-.4 1.1.3 1.2-.1 1.1-.1 1.2.1 1.2.1h1.1l1.2-.1h1.1l1.2-.1h2.3l1.2.1 1.2.1 1.1-.1 1.2.1h1.1l1.2-.1 1.2.2 1.1-.3 1.2.3h1.2l1.1-.2 1.2.2 1.2-.1 1.1-.1 1.2-.1h1.2l1.1.1 1.2.2 1.1-.2h2.4l1.1-.1 1.2-.1 1.2.3h1.1l1.2-.2 1.2.1h2.3l1.2.1h2.3l1.1-.2h1.2l1.2.2h2.3l1.2-.1 1.1.1 1.2.1 1.2-.2 1.1.1h1.2l1.2.1 1.1-.1h1.2l1.2-.2 1.1.2h1.2l1.2.1 1.1-.4 1.2.3 1.2-.1 1.1-.1 1.2.1h1.2l1.1.1 1.2-.1 1.1.1 1.2-.1h1.2l1.1.1 1.2-.3 1.2.2h2.3l1.2.1 1.1-.1h1.2l1.2.2 1.1-.1h1.2l1.2-.2 1.1.2 1.2-.2h1.2l1.1.1 1.2.1 1.2-.1 1.1-.1 1.2.1 1.2.2h1.1l1.2-.2 1.2.1 1.1-.2h2.4l1.1.3 1.2-.3 1.2.3h1.2l1.1-.1 1.2-.1 1.2-.1 1.2.1.7.9.7 1 .7.8.6 1.1.6 1 .8.8.7 1 .7.9.5 1.1z"/><path fill="#0077c8" d="m217.7 640.4-1.2.1-1.1-.2-1.2.1h-1.1l-1.2-.1-1.1.2h-1.2l-1.1-.3h-1.2l-1.1.2-1.2-.1-1.1.1-1.2.1-1.1-.3h-1.2l-1.1.3-1.2-.3h-2.3l-1.1.2-1.2-.2h-4.6l-1.1-.1-1.2.2-1.1.1-1.2-.3-1.1.2H182l-1.1.2-1.2-.4-1.1.3-1.2-.1-1.2-.1-1.1.1-1.2.1h-1.1l-1.2-.3h-1.1l-1.2.2-1.1-.1-1.2.2-1.1.1-1.2-.1-1.1-.2h-1.2l-1.1.2-1.2-.2H159l-1.2.3-1.1-.1-1.2.1-1.1-.1-1.2-.2-1.1.2h-1.2l-1.1.1-1.2-.1-1.1-.3-1.2.2-1.1-.2-1.2.2-1.2.1h-1.1l-1.2.1h-2.3l-1.1-.3-1.2.3-1.1-.3-1.2.3-1.1-.2-1.2-.1-1.1.1-1.2.2-1.1-.3h-1.2l-1.2.3-1.1-.4-1.2.2-1.1.1-1.2-.3-1.1.3-1.2-.2-1.1.3-1.2-.3-1.1.1-1.2-.1-1.2.3-1.1-.2-1.2.1-1 .2-.9.6-.1 1.1.1 1 .5 1 .5 1.1.6 1 .2 1.3.5 1 .5 1.1.6 1 .6 1 .3 1.2.7 1 .4 1.1.4 1.1.7 1 .2 1.2.5 1 .7 1 .5 1.1.2 1.2.6 1 .4 1.1.5 1.1.4 1.1.8.9.3 1.2.4 1.1 1 .8 1 .4h1.2l1.2.2 1.1-.1 1.2-.1h1.2l1.1.1 1.2-.3 1.1.3 1.2.1 1.2-.1 1.1.1 1.2-.3 1.2.2 1.1-.1 1.2-.1h1.1l1.2.2 1.2-.1 1.1-.1h1.2l1.2.3 1.1-.3 1.2-.1 1.2.2 1.1-.1 1.2.2h1.2l1.1-.1h1.2l1.2-.2 1.1.4 1.2-.4 1.2.4 1.1-.1 1.2.1 1.1-.4 1.2.1h1.2l1.2.1 1.1.1 1.2-.2 1.2.2h2.3l1.2.1 1.1-.4 1.2.1 1.1.3 1.2-.3h3.4l1.2.3 1.1-.2 1.2.1 1.1-.1 1.2.2 1.1-.2 1.2-.1 1.1.3 1.2-.1h3.4l1.2-.1 1.1.1 1.2-.1 1.1.1 1.2-.2 1.1.3 1.2-.1h1.1l1.2-.1 1.1-.2 1.2.2 1.1-.1 1.2.2h1.1l1.2-.2 1.1.1 1.2.2 1.2-.3 1.1.1 1.2-.2 1.2.2 1.1.2 1.2-.3 1.2.2 1.1-.3 1.2.2 1.1.1 1.2-.1 1.2-.2 1.1.3h3.5l1.2-.2h1.1l1.2.1h1.2l1.1-.1 1.2.1 1.2.2h1.1l1.2-.1 1.2.1 1.1-.2 1.2-.1 1.2.1 1.1-.2 1.2.2 1.2-.1 1.1.1h1.2l1.1.1 1.2-.1 1.2-.1 1.1-.1 1.2.1 1.2.2 1.2-.2 1.1.3 1.2-.3 1.2.1 1.1.2 1.2-.3 1.2-.1.6-1.1.8-.9.2-1.2.4-1.1.7-1 .4-1.1.5-1.1.6-1 .5-1.1.4-1.1.3-1.1.6-1.1.5-1 .5-1.1.6-1 .4-1.1.5-1.1.5-1 .4-1.2.7-1 .3-1.1.4-1.1.5-1.1.7-1 .5-1.1.3-1.2v-2l-.8-.8h-1.1l-1.1-.2-1.2.1-1.1.1-1.2-.1-1.1.2-1.2-.1-1.1.1-1.2-.1-1.1-.2-1.2.1h-2.3l-1.1.1-1.2.1-1.1-.3-1.2.3-1.1-.2h-1.2l-1.1.1h-1.2l-1.1.1-1.2-.2-1.1.1h-1.2l-1.1.1-1.2-.1-1.1.1-1.2-.2-1.1-.2-1.2.3-1.1-.1h-1.2l-1.2-.1h-1.1l-1.2-.1-1.1.2-1.2-.1-1.1.1h-1.2l-1.1-.1-1.2.3-1.1-.2-1.2.1h-1.1l-1.2-.1-1.2.2-1.1-.3-1.2.2-1.1.1-1.2-.1-1.1-.3-1.2.4-1.1-.3-1.2.3-1.2-.3z"/><path fill="#b5e0ff" d="m461.7 383.1 1-.5 1-.7 1.2-.2.9-.7 1.1-.4 1.1-.5 1-.4 1.1-.6 1-.4 1-.7 1.2-.2 1-.5 1.1-.5 1-.6 1-.5 1-.6 1.1-.3 1.1-.5 1.1-.4.9-.8 1-.5 1.2-.2 1.1-.4 1-.7.9-.6 1.2-.2 1.1-.5 1-.6 1.1-.4.9-.8 1.1-.3 1-.6 1-.6 1.2-.2.9-.7 1.1-.4 1.2-.3.9-.8 1.2-.2.9-.6 1.1-.4 1.1-.5 1.1-.5.9-.7 1-.5 1.1-.5 1.1-.3 1.1-.4 1-.7 1.1-.4 1-.6 1.1-.4 1-.6 1.1-.4 1.1-.3 1-.7 1-.6 1.1-.4 1.1-.3 1-.7 1.1-.3.9-.7.9-.6.8-.9.4-1.1.1-1.1.3-1.1-.3-1.1-.2-1.1-.5-1-.5-1-.6-1-.5-1.1-.4-1.1-.5-1-.5-1.1-.6-.9-.3-1.2-.5-1-.7-1-.3-1.1-.7-.9-.5-1.1-.3-1.1-.7-1-.1-1.2-.7-1-.6-1-.4-1-.3-1.2-.5-1-.8-.9-.4-1.1-.6-1-.1-1.2-.6-1-.5-1.1-.5-1-.5-1-.5-1.1-.7-.9-.3-1.1-.5-1.1-.6-1-.2-1.2-.8-.9-.5-1-.2-1.2-.5-1-.6-1-.5-1.1-.6-1-.5-1-.2-1.2-.5-1-.5-1.1-.5-1-.6-1-.4-1.1-.4-1.1-.8-.9-.4-1.1-.3-1.1-.5-1-.6-1.1-.6-1-.4-1-.3-1.2-.5-1-.8-.9-.4-1.1-.6-1-.1-1.2-.6-1-.4-1.1-.6-1-.4-1.1-.5-1.1-.4-1-.8-1-.6-.9-.4-1.1-.2-1.2-.5-1-.6-1.1-.4-1-.6-1-.4-1.1-.6-1-.3-1.2-.5-1-.8-.9-.4-1.1-.6-1-.5-1.1-.4-1-.3-1.2-.6-1-.4-1.1-.7-.9-.4-1.1-.6-1-.3-1.1-.6-1-.5-1.1-.4-1.1-.3-1.1-.6-1-.4-1.1-.6-1-.5-1-.6-1-.5-1.1-.4-1.1-.3-1.1-.6-1-.6-1-.4-1.1-.6-1-.6-1-.1-1.2-.6-1-.6-1-.5-1.1-.3-1.1-.7-1-.5-1-.5-1.1-.2-1.1-.8-.9-.3-1.2-.8-.9-.1-1.2-.8-1-.5-1-.4-1.1-.4-1.1-.4-1.1-.5-1.1-.5-1-.6-1-.6-1-.8-.7-.7-.9-1.1-.5h-1.1l-1.1-.1h-1.1l-1.1.3-1.1.5-.9.7-1.1.4-1 .5-1 .7-1.1.4-1 .5-1.1.4-1 .5-1.2.3-.9.8-1.1.3-1.1.6-1.1.3-.9.7-1.1.5-1.1.4-.9.6-1.2.4-1.1.4-.9.6-1.1.4-1 .6-1.1.4-1.1.3-1 .7-1.1.4-1 .5-1.1.5-1.1.4-1 .6-1.1.4-1 .4-1 .8-1.1.2-1.1.5-1.1.4-.9.8-1.1.3-1.1.4-.9.8-1.1.4-1.2.3-1 .6-1 .5-1.1.3-1.1.5-.9.9-1.1.2-1.1.5-1.1.5-.9.6-1.2.2-1 .7-1 .5-1.2.4-.9.8-1.2.2-1 .5-1.1.4-1 .6-.9.6-.7.9-.8.7-.4 1.1-.4 1 .1 1.1.1 1.1.1 1.2.7.9.3 1.1.5 1 .5 1.1.7.9.3 1.2.4 1.1.6 1 .5 1 .4 1.1.7.9.5 1.1.2 1.1.7 1 .3 1.1.7 1 .4 1.1.3 1.1.8.9.2 1.2.7.9.5 1.1.3 1.1.6 1 .7 1 .2 1.1.5 1.1.8.9.2 1.1.4 1.1.5 1.1.5 1 .6 1 .3 1.1.8.9.3 1.2.4 1 .8 1 .1 1.2.7.9.4 1.2.7.9.2 1.2.6 1 .4 1 .7 1 .6 1 .2 1.2.6 1 .4 1.1.5 1 .6 1 .3 1.1.5 1.1.8.9.2 1.2.5 1 .6 1 .3 1.1.7 1 .3 1.1.5 1 .5 1.1.7.9.5 1.1.5 1.1.3 1.1.7.9.5 1.1.2 1.2.7.9.5 1.1.5 1 .3 1.1.8 1 .1 1.2.5 1 .5 1 .7 1 .2 1.2.6 1 .6 1 .7 1 .3 1.1.3 1.1.7 1 .4 1 .5 1.1.6 1 .4 1.1.5 1 .5 1.1.4 1 .4 1.2.6.9.6 1 .4 1.1.6 1 .2 1.2.7.9.5 1.1.3 1.1.5 1.1.6 1 .4 1.1.6 1 .4 1.1.5 1 .8.9.2 1.2.5 1 .7 1 .3 1.1.5 1.1.5 1.1.4 1 .5 1.1.4 1.1.8.9.2 1.2.6.9.7 1 .3 1.1.4 1.2.5 1 .6 1 .5 1 .5 1.1.4 1.1.6 1 .5 1.1.3 1.1.8.9.7.8.7.9 1.1.3 1.1.3 1.1.1 1.1-.3z"/><path fill="none" stroke="#0a669e" stroke-miterlimit="10" stroke-width="9" d="m461.7 383.1 1-.5 1-.7 1.2-.2.9-.7 1.1-.4 1.1-.5 1-.4 1.1-.6 1-.4 1-.7 1.2-.2 1-.5 1.1-.5 1-.6 1-.5 1-.6 1.1-.3 1.1-.5 1.1-.4.9-.8 1-.5 1.2-.2 1.1-.4 1-.7.9-.6 1.2-.2 1.1-.5 1-.6 1.1-.4.9-.8 1.1-.3 1-.6 1-.6 1.2-.2.9-.7 1.1-.4 1.2-.3.9-.8 1.2-.2.9-.6 1.1-.4 1.1-.5 1.1-.5.9-.7 1-.5 1.1-.5 1.1-.3 1.1-.4 1-.7 1.1-.4 1-.6 1.1-.4 1-.6 1.1-.4 1.1-.3 1-.7 1-.6 1.1-.4 1.1-.3 1-.7 1.1-.3.9-.7.9-.6.8-.9.4-1.1.1-1.1.3-1.1-.3-1.1-.2-1.1-.5-1-.5-1-.6-1-.5-1.1-.4-1.1-.5-1-.5-1.1-.6-.9-.3-1.2-.5-1-.7-1-.3-1.1-.7-.9-.5-1.1-.3-1.1-.7-1-.1-1.2-.7-1-.6-1-.4-1-.3-1.2-.5-1-.8-.9-.4-1.1-.6-1-.1-1.2-.6-1-.5-1.1-.5-1-.5-1-.5-1.1-.7-.9-.3-1.1-.5-1.1-.6-1-.2-1.2-.8-.9-.5-1-.2-1.2-.5-1-.6-1-.5-1.1-.6-1-.5-1-.2-1.2-.5-1-.5-1.1-.5-1-.6-1-.4-1.1-.4-1.1-.8-.9-.4-1.1-.3-1.1-.5-1-.6-1.1-.6-1-.4-1-.3-1.2-.5-1-.8-.9-.4-1.1-.6-1-.1-1.2-.6-1-.4-1.1-.6-1-.4-1.1-.5-1.1-.4-1-.8-1-.6-.9-.4-1.1-.2-1.2-.5-1-.6-1.1-.4-1-.6-1-.4-1.1-.6-1-.3-1.2-.5-1-.8-.9-.4-1.1-.6-1-.5-1.1-.4-1-.3-1.2-.6-1-.4-1.1-.7-.9-.4-1.1-.6-1-.3-1.1-.6-1-.5-1.1-.4-1.1-.3-1.1-.6-1-.4-1.1-.6-1-.5-1-.6-1-.5-1.1-.4-1.1-.3-1.1-.6-1-.6-1-.4-1.1-.6-1-.6-1-.1-1.2-.6-1-.6-1-.5-1.1-.3-1.1-.7-1-.5-1-.5-1.1-.2-1.1-.8-.9-.3-1.2-.8-.9-.1-1.2-.8-1-.5-1-.4-1.1-.4-1.1-.4-1.1-.5-1.1-.5-1-.6-1-.6-1-.8-.7-.7-.9-1.1-.5h-1.1l-1.1-.1h-1.1l-1.1.3-1.1.5-.9.7-1.1.4-1 .5-1 .7-1.1.4-1 .5-1.1.4-1 .5-1.2.3-.9.8-1.1.3-1.1.6-1.1.3-.9.7-1.1.5-1.1.4-.9.6-1.2.4-1.1.4-.9.6-1.1.4-1 .6-1.1.4-1.1.3-1 .7-1.1.4-1 .5-1.1.5-1.1.4-1 .6-1.1.4-1 .4-1 .8-1.1.2-1.1.5-1.1.4-.9.8-1.1.3-1.1.4-.9.8-1.1.4-1.2.3-1 .6-1 .5-1.1.3-1.1.5-.9.9-1.1.2-1.1.5-1.1.5-.9.6-1.2.2-1 .7-1 .5-1.2.4-.9.8-1.2.2-1 .5-1.1.4-1 .6-.9.6-.7.9-.8.7-.4 1.1-.4 1 .1 1.1.1 1.1.1 1.2.7.9.3 1.1.5 1 .5 1.1.7.9.3 1.2.4 1.1.6 1 .5 1 .4 1.1.7.9.5 1.1.2 1.1.7 1 .3 1.1.7 1 .4 1.1.3 1.1.8.9.2 1.2.7.9.5 1.1.3 1.1.6 1 .7 1 .2 1.1.5 1.1.8.9.2 1.1.4 1.1.5 1.1.5 1 .6 1 .3 1.1.8.9.3 1.2.4 1 .8 1 .1 1.2.7.9.4 1.2.7.9.2 1.2.6 1 .4 1 .7 1 .6 1 .2 1.2.6 1 .4 1.1.5 1 .6 1 .3 1.1.5 1.1.8.9.2 1.2.5 1 .6 1 .3 1.1.7 1 .3 1.1.5 1 .5 1.1.7.9.5 1.1.5 1.1.3 1.1.7.9.5 1.1.2 1.2.7.9.5 1.1.5 1 .3 1.1.8 1 .1 1.2.5 1 .5 1 .7 1 .2 1.2.6 1 .6 1 .7 1 .3 1.1.3 1.1.7 1 .4 1 .5 1.1.6 1 .4 1.1.5 1 .5 1.1.4 1 .4 1.2.6.9.6 1 .4 1.1.6 1 .2 1.2.7.9.5 1.1.3 1.1.5 1.1.6 1 .4 1.1.6 1 .4 1.1.5 1 .8.9.2 1.2.5 1 .7 1 .3 1.1.5 1.1.5 1.1.4 1 .5 1.1.4 1.1.8.9.2 1.2.6.9.7 1 .3 1.1.4 1.2.5 1 .6 1 .5 1 .5 1.1.4 1.1.6 1 .5 1.1.3 1.1.8.9.7.8.7.9 1.1.3 1.1.3 1.1.1 1.1-.3z"/><path fill="none" stroke="#87d0f9" stroke-linecap="round" stroke-miterlimit="10" stroke-width="2.9" d="m436.7 224.9-15.7 7.3"/><path fill="#87d0f9" d="m492.9 348.2.4 1 .1 1.1v1.1l-.2 1.1-.4 1-.5.9-.7.9-.8.7-1 .5-1 .4-1.1.2h-1.1l-1.1-.2-1-.4-1-.5-.8-.7-.7-.9-.5-.9-.4-1.1-.2-1v-1.1l.2-1.1.4-1 .5-1 .7-.8.9-.7.9-.6 1-.4 1.1-.1h1.1l1.1.2 1 .3 1 .6.8.7.7.8z"/><path fill="#0077c8" d="m476.7 262.8-1 .6-1.1.4-1 .6-1.1.4-1 .5-1.1.4-1 .6-1 .5-1.1.5-1.1.4-1 .5-1 .5-1.1.5-1 .5-1.1.5-1.1.4-1 .5-1 .5-1.1.5-1 .5-1.1.5-1 .5-1.1.4-1 .5-1.1.5-1 .5-1.1.4-1.1.5-1 .6-1 .4-1.1.6-1 .5-1.1.4-1 .6-1.1.4-1 .6-1.1.4-1 .5-1.1.5-1.1.4-1 .6-1.1.4-1 .6-1.1.4-1 .5-1.1.4-1 .6-1.1.4-1.1.5-1 .6-1.1.3-1.1-.2-1-.6-.7-.9-.4-1.1-.5-1.1-.5-1-.5-1.1-.5-1-.5-1.1-.5-1-.5-1.1-.5-1-.4-1.1-.5-1-.5-1.1-.6-1-.2-1.1.2-1.1.6-1 .9-.7 1.1-.5 1-.5 1-.5 1.1-.5 1-.4 1.1-.6 1-.4 1.1-.5 1-.4 1-.6 1.1-.4 1.1-.5 1-.5 1-.6 1.1-.3 1-.6 1.1-.4 1-.6 1.1-.5 1-.5 1.1-.5 1-.4 1.1-.6 1.1-.4 1-.5 1-.5 1.1-.5 1-.4 1.1-.5 1-.5 1.1-.5 1-.5 1.1-.4 1-.6 1.1-.4 1.1-.5 1-.5 1-.6 1.1-.5 1.1-.4 1-.5 1.1-.5 1-.5 1.1-.5 1.1-.4 1-.5 1-.6 1.1-.5 1.1-.4 1-.6 1.1-.2 1.1.2 1 .6.6.9.6 1 .4 1.1.5 1.1.6 1 .4 1.1.6 1 .4 1 .4 1.1.5 1.1.6 1 .5 1 .4 1.1.6 1 .2 1.2-.2 1.1-.6.9zm21.9 45-1 .4-1.1.5-1.1.5-1 .5-1.1.5-1 .5-1.1.4-1 .5-1.1.5-1 .5-1.1.5-1 .5-1.1.5-1 .5-1.1.5-1 .5-1.1.4-1 .5-1.1.5-1.1.5-1 .5-1.1.5-1 .5-1.1.5-1 .5-1.1.4-1 .6-1.1.5-1.1.4-1 .3-1-.4-.6-.8-.6-1.1-.4-1-.5-1-.5-1.1-.5-1-.5-1.1-.5-1-.4-1.1-.5-1-.5-1.1-.5-1-.1-1 .3-1 .8-.7 1-.5 1.1-.5 1.1-.4 1-.5 1.1-.5 1-.5 1.1-.5 1-.5 1.1-.5 1-.4 1.1-.5 1-.5 1.1-.5 1-.6 1.1-.4 1-.5 1.1-.5 1.1-.4 1-.6 1.1-.4 1-.5 1.1-.5 1-.5 1.1-.5 1-.5 1.1-.5 1-.5 1.1-.5 1.1-.4 1-.2 1 .3.6.8.5 1.1.5 1 .5 1 .4 1.1.5 1 .6 1 .5 1.1.4 1 .5 1.1.5 1 .4 1.1.3 1-.4 1z"/><path fill="none" stroke="#0a669e" stroke-linecap="round" stroke-miterlimit="10" stroke-width="2.25" d="m427.2 298.4 1.1-.5 1-.6 1-.4 1.1-.5 1.1-.5 1-.5 1.1-.5 1-.4 1.1-.6 1-.4 1.1-.5 1-.5 1.1-.5 1-.5 1.1-.5 1-.5 1.1-.4 1-.6 1.1-.4 1-.6 1.1-.4 1-.5 1.1-.5 1-.5 1.1-.5 1-.5 1.1-.4 1-.5 1.1-.5 1-.5 1.1-.5 1-.5 1.1-.5 1.1-.4 1-.5 1.1-.5 1-.5 1.1-.5 1.1-.5 1-.5 1-.5 1.1-.5 1.1-.5m-9.4 17.3 1-.5 1-.5 1-.4 1.1-.5 1-.5 1-.5 1-.4m-40.5 12.5 1-.6 1.1-.4 1-.5 1.1-.5 1-.5 1-.5 1.1-.4 1-.5 1.1-.5 1-.5 1-.5 1.1-.4 1-.5 1-.6 1.1-.4 1-.5 1.1-.5 1-.4 1.1-.5 1-.5 1-.5 1.1-.5 1-.5 1-.5 1.1-.5 1-.4 1.1-.5 1-.5 1.1-.5 1-.5 1.1-.4M432.2 309l1-.5 1-.5 1.1-.5 1-.5 1-.4 1.1-.5 1-.5 1.1-.5 1-.5 1-.5 1.1-.4 1-.5 1.1-.5 1-.5 1-.5 1.1-.4 1-.5 1.1-.5 1-.5 1-.5 1.1-.5 1-.5 1.1-.4 1-.6"/><path fill="#c07d6c" d="m498.6 427.7 1-1 .6-1 .5-1.1.6-1 .6-1 .5-1.1.7-1 .3-1.1.3-1.2.5-1 .4-1.2.2-1.1.5-1.1.2-1.2-.1-1.2.5-1.2-.2-1.2.3-1.1-.1-1.2.1-1.2-.4-1.2-.3-1.1-.2-1.2-.2-1.1.1-1.2-.3-1.1-.4-1.2.1-1.2-.3-1.1-.4-1.1-.4-1.1-.4-1.1-.2-1.1-.3-1.2-.3-1.1-.1-1.2-.7-.9-.4-1.2-.1-1.2-.3-1.1-.6-1-.2-1.2-.4-1-.7-1-.3-1.1-.3-1.1-.7-1-.4-1.1-.2-1.2-.6-1-.5-1.1-.2-1.1-.4-1.1-.4-1.1-.7-1-.2-1.2-.3-1.1-.7-1-.1-1.2-.3-1.1-.6-1.1-.3-1.1-.6-1-.4-1.1-.2-1.2-.3-1.1-.5-1.1-.1-1.2-.4-1.1v-1.2l-.8-1 .1-1.3-.1-1.1-.3-1.2-.3-1.1-.2-1.1-.2-1.2v-1.2l.1-1.1.2-1.2-.2-1.1-.3-1.2-.1-1.1-.2-1.2.1-1.2-.7-1-.3-1.1-.3-1.1-1-.8-.8-.8-1-.5-.9-.7-1.2-.1-1.2-.1h-1.1l-1.1.1-1.2.1-.9.6-1.1.5-.8.8-.9.7-.6.9-.7.9-.6.9-.6 1-.3 1.1-.5 1v1.1l-.1 1.1-.3 1.2v1.2l-.1 1.1.1 1.2.1 1.1-.4 1.2.2 1.2-.2 1.1.2 1.2v1.2l-.1 1.1.3 1.2-.5 1.2.1 1.1-.1 1.2.2 1.2.1 1.2-.2 1.1.1 1.2-.4 1.2-.1 1.1.3 1.2-.5 1.1.4 1.2-.4 1.2-.1 1.1-.3 1.1-.8-.8-.9-.7-.8-.8-.6-1-1.1-.6-.7-1-.9-.7-.8-.8-.8-.8-.7-1-.9-.6-.8-.9-.7-.9-1.1-.6-.7-.9-.8-.8-.7-1-1.1-.5-.5-1.1-1.1-.6-.6-1-1-.6-.8-.9-.7-1-1-.5-.7-1-.8-.8-1-.7-.7-1-.9-.7-.7-1-.9-.7-1-.6-.8-.9-.7-.9-.8-.9-1-.6-.7-.9-.8-.9-.7-.9-1-.7-.8-.8-.8-.8-.9-.8-.9-.8-.9-.7-.7-.9-.8-.8-.8-.8-.8-.9-.8-.8-.6-.9-.8-.9-.4-1-.7-1-.4-1-.3-1.1-.5-1.1-.6-.9-.3-1.1-.6-1-.5-1-.4-1.1-.7-.9-.6-1-.5-1.1v-1.2l-.8-.9-.2-1.1-.8-.9-.3-.9-.6.8-.7.9-.4 1.1-.7 1-.5 1-.7.9-.5 1.1-.3 1.1-.9.9-.3 1.1-.3 1.2-.7.9-.7 1-.2 1.2-.4 1.1-.6 1-.5 1.1-.2 1.1-.1 1.2-.3 1.1-.2 1.2-.3 1.1.4 1.2.1 1.1-.2 1.2.4 1.2.6 1 .4 1.1.4 1.1.5 1.1.2 1.2.8.9.2 1.2.8 1 .4 1 .5 1.1.5 1.1.7.9.6 1.1.5 1 .5 1.1.7 1 .2 1.2.7 1 .8.9.4 1.2.7.9.5 1.1.6 1 .5 1.1.7.9.7 1 .4 1.1-.2 1.1-.6 1-.1 1.2-.8.9-.2 1.1-.1 1.2-.3 1.1-.6 1.1-.2 1.1-.4 1.1-.3 1.1-.1 1.2-.1 1.1-.2 1.1-.4 1.1v1.2l-.1 1.1-.1 1.2.2 1.1v1.1l.3 1.2.4 1.1.1 1.2.7 1 .2 1.1.8 1 .3 1.1.2 1.2.4 1.1.9.9.1 1.2.4 1.1.5 1.1.6 1 .7.9.3 1.2.5 1.1.4 1.1.3 1.1.5 1 .8 1 .4 1.1.4 1.1.4 1.1.4 1.1.5 1 .6 1.1.5 1.1.4 1.1.8.9.5 1.1.3 1.1.6 1 .3 1.2.9.9.2 1.2.7.9.5 1.1.3 1.1.4 1.2.7.9.6 1.1.6 1 .4 1.1.6 1 .3 1.1.5 1.1.8.9.2 1.2.7 1 .3 1.1.3 1.1v1.2l.6 1.1.1 1.1.3 1.1.4 1.1.2 1.2.5 1.1.2 1.1.3 1.1v1.2l.6 1.1.2 1.1.2 1.2.3 1.1v1.2l.3 1.1.5 1.1.3 1.1.2 1.1v1.2l.5 1.1.1 1.2.3 1.1.5 1.1v1.2l.5 1 .2 1.2.4 1.1.3 1.1-.2 1.3.4 1.1.5 1.1.3 1.1-.1 1.2.6 1.1-.1 1.2.6 1.1.4 1.1-.1 1.2.4 1.1.1 1.1.3 1.2.5 1 .2 1.2.1 1.2.4 1.1v1.2l.4 1.1.3 1.1.2 1.1.4 1.1.1 1.2.1 1.2.6 1 .1 1.2.1 1.2.4 1 1.2-.2 1-.5 1.1-.4 1.1-.5 1.1-.5 1.2-.1 1-.6 1.2-.2 1.1-.4 1-.6 1.1-.2 1.2-.3 1-.7 1.1-.2 1.2-.2 1.1-.4 1.1-.3 1.1-.6 1-.6 1.1-.4 1.2-.1 1-.6 1.2-.1 1.1-.4 1.1-.5 1.1-.3 1.1-.5 1.1-.3 1.1-.4 1-.6h1.2l1.1-.7 1.1-.2 1.1-.5 1.1-.3 1-.6 1.1-.4 1.2-.1 1.1-.4 1.1-.6 1.1-.3 1.1-.5 1.1-.3 1.1-.5 1.1-.3 1.1-.4 1.2-.1 1-.7 1.1-.3 1.2-.2 1.1-.5 1-.6h1.2l1-.7 1.1-.5 1.1-.3 1.2-.2 1.1-.5 1.1-.3 1.2-.3 1.1-.5-.7-1-.3-1.2-.4-1-.3-1.2-.7-.9-.3-1.2-.5-1-.8-1-.4-1-.4-1.1-.4-1.1-.5-1.1-.2-1.2-.7-.9-.6-1-.1-1.2-.8-1-.2-1.1-.5-1.1-.5-1.1-.6-.9-.5-1.1-.3-1.1-.5-1.1-.3-1.1-.5-1.1-.8-.9-.3-1.2-.4-1-.4-1.1-.3-1.2-.6-1-.6-1-.3-1.1-.5-1.1-.5-1.1-.4-1-.6-1-.5-1.1-.5-1-.4-1.2-.4-1.1-.6-1-.6-1-.2-1.2-.6-1-.4-1.1-.5-1-.3-1.2-.4-1.1z"/><path fill="none" stroke="#501915" stroke-linecap="round" stroke-miterlimit="10" stroke-width="2.3" d="m420.8 364.4.7.9.7.9.7.9.7.9.7.9.8.9.7.9.7.9.8.9.7.9"/><path fill="#501915" d="m790 348.3.4.7.8.7.6.9.8.6.7.7.4 1 .9.6.5.8.5.9.8.7.5 1 .6.7.8.7.6.8.5.9.6.9.5.8.7.8.5.9.5.9.4.9.7.8.3 1 .6.8.5.9.3.9.5 1 .6.8.2 1 .5.9.5.9.5.9.2 1 .3 1 .4.9.4.9.4 1 .3 1 .2 1 .1 1 .2 1 .3 1 .1 1 .1 1-.1 1v1.1l.1 1v2l-.1 1-.1 1-.3 1-.1 1-.1 1-.2 1-.2 1-.1 1-.2 1-.2 1v1l-.1 1-.3 1-.2 1-.2 1v1l-.3 1v1l-.2 1-.2 1v2.1l-.2 1-.3 1 .2 1-.3 1v1l-.1 1 .1 1.1-.2 1v1l.2 1-.1 1v2.1l.1 1 .1 1 .1 1 .2 1 .2 1v1l.1 1.1.2 1 .2 1 .5.9.1 1 .4 1 .3.9.4 1 .3 1 .1 1 .6.8.2 1.1.6.8.3 1 .6.9.4.9.5.9.8.7.4 1 .5.8.8.7.4 1 .7.7.7.8.6.8.7.7.9.5.6.9.9.5.9.4.9.5.9.6.9.3 1 .2.9.5 1 .3 1 .1 1 .2h1l1 .3 1-.1h1.1l1 .2 1-.2 1 .1 1-.2 1 .1 1-.3 1-.1 1-.2 1-.3h1l1-.3 1-.3.9-.3 1-.1 1-.2 1-.2.9-.5 1-.3 1-.3.9-.4 1-.1.9-.6 1-.2.9-.3 1-.5.9-.4 1-.3.9-.4.8-.6 1-.3.9-.4 1-.3.8-.7 1-.4.8-.5 1-.2.8-.7 1.1-.2.8-.6.9-.5.9-.5.9-.5.8-.6.9-.4.9-.6.9-.4.8-.6 1-.3.8-.7.9-.4.8-.7.8-.6.8-.5-.2-.9-.2-1-.3-1-.2-1-.2-1-.4-.9-.2-1-.2-1-.2-1-.3-1-.2-1-.4-.9-.3-1-.2-1-.2-1-.4-.9-.3-1-.3-1v-1l-.4-1-.4-.9-.1-1-.1-1-.4-1-.2-1-.2-1-.3-.9-.2-1-.2-1-.3-1-.4-.9-.4-1-.1-1-.3-1-.3-.9-.2-1.1-.2-.9-.1-1.1-.6-.9v-1l-.3-1-.4-.9-.1-1-.4-1-.3-1-.2-1-.3-.9-.1-1.1-.4-.9-.3-1-.1-1-.3-1-.1-1-.5-.9-.3-1-.1-1-.3-1-.3-.9-.1-1.1-.2-1-.4-.9-.3-1-.3-.9-.2-1-.2-1-.1-1.1-.5-.9-.1-1-.3-1-.3-.9-.2-1-.4-1-.2-1-.4-.9-.2-1-.1-1-.3-1-.1-1-.5-1-.1-1-.4-.9-.3-1-.2-1-.2-1-.4-.9-.1-1-.3-1-.2-1-.2-1-.2-1-.3-1-.3-1-.4-.9-.1-1-.3-1-.3-1-.4-.9-.1-1.1-.4-.9-.2-1-.3-1-.3-1-.2-1-.2-1-.2-1-.2-1-.4-.9-.2-1-.3-1-.4-1v-1l-.5-.9-.2-1-.3-1-.2-1-.1-1.1-1.1-.1-.9-.2h-1l-1-.1-1-.2-1-.1-1-.2-1 .2-1-.4-1 .2-1-.3-1 .1-.9-.4h-1l-1-.2h-1l-1-.1h-1l-1-.2-1-.3-1 .1-1-.1-1-.3-1 .1-1-.3-1 .1-1-.1-1-.2-1-.1h-1l-1-.3-.9.5-.8.6-.8.6-.8.6-.9.5-.8.6-.8.7-.8.6-1 .4-.8.6-.9.6-.9.5-.8.6-.8.6-.8.6-.8.7-.9.5-.9.6-.8.6-.8.6-.9.5-.8.6-.9.6-.9.4-.8.7-.8.6-.9.5-.8.6-.9.6-.9.4-.9.6-.7.7-1 .5-.8.6-.8.6-.9.5-.8.7-.8.6zm-54.7-199h-.7l-.8.2-.8.2-.8.1-.7.3-.8.1-.7.4-.8.2-.7.4-.8.2-.7.4-.8.2-.6.5-.8.3-.7.4-.7.4-.7.3-.7.5-.6.5-.7.3-.6.6-.7.4-.6.5-.7.4-.5.6-.6.5-.6.6-.6.5-.6.5-.6.6-.5.6-.5.6-.5.7-.6.5-.4.7-.4.7-.5.6-.4.7-.4.7-.3.8-.4.6-.3.8-.2.8-.4.7-.2.8-.1.8-.3.7-.1.8-.2.8-.1.8-.2.8v.8l-.1.8v.8l-.1.8.1.8v.8l-.1.8-.1.8.2.8v.8l.2.7v.8l.2.8.2.8.2.8.2.7.4.8.1.8.3.7.3.7.4.7.5.7.4.7.4.6.5.6.6.6.5.6.5.6.6.6.6.4.7.5.6.5.6.5.8.3.6.5.8.3.7.3.7.3.8.2.8.2.7.3.8.1.8.1h.8l.8-.2.7-.3.6-.5.5-.6.5-.6.4-.7.4-.7.4-.6.3-.8.4-.7.3-.7.1-.8.4-.7.2-.8.2-.8.2-.7.2-.8.1-.8.3-.7v-.8l.3-.8.1-.8.1-.7.2-.8.1-.8.2-.8v-.8l.2-.7v-.8l.3-.8v-.8l.1-.8.1-.8.2-.8v-.7l.1-.8.1-.8v-.8l.2-.8.1-.8-.1-.8.2-.8.1-.8v-1.6l.1-.8.1-.8v-.8l.1-.8.1-.8v-1.6l.1-.8v-.8l.1-.8.1-.7v-3.2l.1-.8v-.8l-.1-.8.2-.8-.1-.8.1-.8v-.8l.1-.7z"/><path fill="#c07d6c" d="m884 292.5.5-1.6.6-1.5.4-1.5.8-1.4.4-1.6.8-1.4.2-1.6.6-1.5.4-1.5.8-1.5.1-1.6.9-1.4.3-1.6.4-1.5.3-1.6.9-1.4v-1.7l.6-1.5.2-1.6.8-1.4.1-1.7.3-1.5.7-1.5.2-1.6.4-1.6.7-1.5-.1-1.6.7-1.5.2-1.6.4-1.6.5-1.5.1-1.6v-1.6l.8-1.5.1-1.6.4-1.6.4-1.5.2-1.6-.1-1.7.7-1.5.2-1.6.1-1.6.5-1.5.2-1.6v-1.6l.5-1.5-.1-1.7.7-1.5v-1.6l.3-1.6v-1.6l.4-1.5.1-1.6.2-1.6V207l.5-1.6v-1.6l.4-1.5-.1-1.7.1-1.6.6-1.5-.1-1.6.1-1.6-1.6-.4-1.2-1-1.5-.5-1.5-.6-1.5-.7-1.6-.2-1.3-.9-1.6-.4-1.4-.7-1.5-.5-1.5-.5-1.5-.7-1.4-.7-1.5-.5-1.3-1-1.6-.2-1.4-.9-1.6-.2-1.3-.9-1.6-.5-1.4-.8-1.4-.7-1.5-.5-1.6-.4-1.4-.7-1.4-.8-1.6-.2-1.5-.6-1.4-.6-1.4-.9-1.4-.7-1.5-.6-1.6-.3-1.3-.8-1.6-.4-1.4-.9-1.5-.4-1.5-.4-1.5-.8-1.4-.6-1.6-.4-1.3-.8-1.6-.5-1.3-.9-1.6-.3-1.4-.9-1.6-.3-1.4-.7-1.4-.9-1.5-.3-1.4-1-1.5-.4-1.4-.7-1.6-.3-1.4-.8-1.5-.5-1.4-.7-1.6-.5-1.4-.7-1.4-.7-1.5-.7-1.4-.6-1.5-.6-1.5-.6-1.6-.2-1.5-.6-1.5-.6h-1.5l-1.6-.1-1.7-.1-1.6.1-1.6.5-1.6-.1-1.6.1-1.6-.2-1.6.1-1.7.3-1.6.3h-1.6l-1.6-.4-1.6.2-1.6.3-1.6.1-1.6.3-1.7-.4-1.6.5-1.6-.2-1.6.3-1.6-.2-1.6.3h-1.6l-1.7-.2-1.6.2-1.6-.1-1.6.5-1.6.1-1.6-.1-1.6.3-1.6.1-1.7-.1-1.6.3-1.6-.1-1.6.1-1.6-.2-1.6.4-1.7-.3-1.6.2-1.6.3-1.6.3-1.6-.3-1.7.2-1.6.1-.7 1.4-.6 1.4-1.1 1.3-.6 1.5-.6 1.5-.2 1.6-.8 1.4-.5 1.6-.5 1.5-.5 1.5-.4 1.5-.4 1.6-.9 1.4-.5 1.5-.2 1.6-.5 1.5-.3 1.6-.6 1.5-.2 1.6-.6 1.5-.4 1.5-.1 1.7-.2 1.6-.7 1.4-.2 1.6-.2 1.6-.2 1.6-.1 1.6-.5 1.6-.4 1.5.1 1.7-.1 1.6-.2 1.6-.4 1.5-.1 1.6v3.2l.1 1.6-.4 1.6v1.6l.2 1.7-.2 1.6.2 1.6.2 1.6.1 1.7.2 1.6-.1 1.6-.1 1.6.2 1.7-.3 1.6.4 1.6-.2 1.7.1 1.6.3 1.6v3.3l.1 1.6v1.6l.1 1.6v1.7l-.3 1.6.3 1.6-.1 1.6v1.7l-.5 1.5-.5 1.5-1 1.3-.5 1.6-.5 1.5-.8 1.4-.7 1.4-.6 1.5-.5 1.5-.5 1.6-.7 1.4-.5 1.5-.8 1.4-.7 1.5-.2 1.7-1 1.3-.1 1.7-.5 1.5-1 1.3.1 1.7-.5 1.6-.6 1.5.1 1.6v1.5l.5 1.6 1 1.2 1 1.3 1.2 1.1 1.6.6 1.4.7 1.4.8 1.5.6 1.4.8 1.5.6 1.5.5 1.5.7 1.6.4 1.5.6 1.4.8 1.1 1.2.9 1.2.5 1.6 1.1 1.2.4 1.6.7 1.4.7 1.4.5 1.5.9 1.4.6 1.5.7 1.4.5 1.5.6 1.5.9 1.3.5 1.5.7 1.5.6 1.5.7 1.4.6 1.5.5 1.5.7 1.5.8 1.3.9 1.3.7 1.5 1 1.3.5 1.5 1.1 1.2.6 1.5 1.3 1 1 1.3.9 1.3 1.2 1 1.2 1.1 1.4.9 1.5.6 1.2 1.1 1.5.7 1.5.6 1.5.5 1.5.5 1.5.7 1.4.8 1.5.4 1.6.3 1.7.1 1.5.4 1.6.3 1.6.3 1.5.2 1.6.2 1.6.3 1.6.1 1.6-.2 1.6.1h3.3l1.6.1 1.6-.3 1.5-.4 1.7.2h1.6l1.6-.4h1.6l1.5-.5 1.6-.2 1.6-.4 1.6-.2 1.5-.3 1.6-.5 1.6-.1 1.5-.5 1.6-.5 1.5-.3 1.5-.8 1.6-.3 1.5-.4 1.5-.8 1.5-.5 1.5-.6 1.6-.2 1.5-.7 1.4-.7 1.5-.7 1.4-.7 1.6-.5 1.4-.7 1.3-.9 1.5-.8 1.5-.4 1.7-.9.4 1.6v1.7l.5 1.5.5 1.5.2 1.6.4 1.6.3 1.5.2 1.6.3 1.6.7 1.5-.1 1.6.6 1.5.3 1.6.4 1.6.3 1.5.6 1.5v1.7l.2 1.6.8 1.4.4 1.6v1.6l.3 1.6.8 1.4.3 1.6v1.6l.6 1.5.2 1.6.2 1.6.5 1.5.3 1.6.3 1.6.6 1.5.5 1.5.1 1.6.3 1.6.4 1.6.3 1.5.1 1.6.8 1.5-.1 1.7.4 1.5.8 1.5.1 1.6.3 1.6.5 1.5.2 1.6.2 1.6.4 1.5.8 1.5.3 1.6.2 1.6.2 1.6.6 1.5.2 1.6.5 1.4h1.4l1.6-.2h3.3l1.5-.5h1.7l1.6-.1 1.6-.4 1.6-.1 1.6.1 1.6-.5 1.6-.1 1.6-.1h3.2l1.6-.2 1.6-.4 1.6-.2 1.6-.1h3.3l1.5-.5 1.7.3 1.5-.6h1.7l1.6-.2 1.6.1h1.6l1.6-.6h1.6l1.6.1 1.6-.4h1.6l1.7-.2 1.6-.1 1.5-.3.3-1.5.1-1.6.1-1.6-.3-1.6.2-1.6.2-1.6.2-1.6-.1-1.6.2-1.6-.4-1.6.3-1.6.1-1.6-.1-1.6.4-1.5-.1-1.7.2-1.5-.1-1.6v-1.6l-.1-1.7.3-1.5.1-1.6-.2-1.6v-1.6l.4-1.6-.1-1.6-.1-1.6.2-1.6-.1-1.6.4-1.6-.2-1.6.1-1.6.1-1.6.1-1.6.1-1.6v-1.6l.2-1.6-.2-1.6.1-1.6.3-1.6-.2-1.6v-1.6l.4-1.6.1-1.6v-1.6l.2-1.6-.4-1.6.4-1.6.1-1.6-.3-1.6.2-1.6.3-1.6-.3-1.6.5-1.6.1-1.6-.2-1.6v-1.6l.3-1.6v-1.7l-1.1-1.2-1-1.2-1.2-1-1.2-1.1-1.2-1.2-.8-1.3-.9-1.4-1.4-.9-1-1.2-1.2-1.1-.9-1.3-1-1.3-1.3-1-1-1.2-1.2-1.1-1.1-1.2-.9-1.3-1.2-1.1-.9-1.3-1-1.3-1-1.2-1.3-1-.9-1.4-1.4-.9-.9-1.3-1-1.2-1.1-1.3-1.3-.9-1.1-1.1-.9-1.4-1.3-1-.9-1.3-.9-1.4-1.3-1z"/><path fill="none" stroke="#501915" stroke-linecap="round" stroke-miterlimit="10" stroke-width="2.88" d="m762.7 295.9-.4.8-.5.8-.5.8-.5.8-.6.7-.6.7-.6.7-.7.7-.7.6-.7.7-.7.5-.8.5-.7.6-.8.5-.9.4-.8.4-.9.4-.8.3-.9.3-1 .2-.9.2-.9.1-.9.2m-25.4-94 .8-.4.8-.5.8-.5.9-.3.9-.3.8-.3.9-.3.9-.2 1-.2.9-.1h.9l.9-.2.9-.1h1l.9.1.9.1 1 .1.9.1.9.2.9.1.9.2.9.3.9.4.9.2.8.4.9.4.8.4.9.4.8.5.8.5.8.4.8.6.7.6.8.5.7.5.7.6"/><path fill="#501915" d="m738.8 236.7-.1.9-.2.8-.3.9-.5.8-.5.7-.7.6-.7.6-.8.5-.8.3-.9.1-.9.1-.9-.1-.9-.1-.8-.4-.8-.4-.8-.5-.6-.7-.6-.7-.4-.8-.3-.8-.2-.9-.1-.9.1-1 .2-.8.3-.9.5-.8.5-.7.6-.7.8-.5.8-.4.8-.3.9-.2.9-.1.9.1.9.2.8.3.8.4.7.6.7.6.6.7.4.8.3.9.2.9zM839 347l1.6-.8 1.5-.8 1.5-.9 1.5-.8 1.5-.8 1.5-.9 1.5-.8 1.5-1 1.4-1-.1.9-1 1.3-1.1 1.3-1.1 1.3-1.1 1.3-1.1 1.2-1.1 1.3-1.1 1.3-1.2 1.3-1.1 1.2-1.2 1.2-1.3 1.1-.9-1.3-.2-1.8v-1.9z"/><path fill="#e97262" d="m752.5 794.1 2 .6 1.9-.4 1.9-.1 2 .7 1.9-.5 1.9.5 2-.7 1.9.1 1.9.6 2-.4 1.9.2 1.9-.4h2l1.9.6 1.9-.6 2 .2 1.9-.2 1.9.3 2 .2 1.9-.3 1.9-.3 2 .6 1.9.1 2 .1 1.9-.4 1.9.3 2-.6 1.9.2 1.9.3 2 .2 1.9-.6 1.9.3 2-.6 1.9.6 1.9.3 2-.1 1.9-.3 1.9-.2 2 .2 1.9-.1 2-.1 1.9-.2 1.9.1 2 .6 1.9-.8 1.9.2 2-.1 1.9.5 2-.1 1.9.3 1.9-.2h2l1.9-.5 1.9.1 2 .2 1.9.4 2-.3h1.9l1.9-.4 2 .4 1.9.4 1.9-.8 2 .3 1.9-.1h2l1.9.1 1.9.1h2l1.9-.5 1.9.4 2-.2 1.9.5 2-.1 1.9-.5 1.9.5 2-.6 1.9.6h2l1.9-.5 1.9.7 2 .1 1.9-.4 2-.1 1.9.5 1.9-.1 2-.1h1.9l2-.5 1.9.5 2-.5 1.9.7 1.8-2v-2l-.1-1.9-.2-2-.4-1.9.4-1.9.3-2 .1-1.9-.8-2 .1-1.9.6-1.9-.2-2 .3-1.9-1-2 .4-1.9.1-1.9-.4-2 .6-1.9.1-2-.6-1.9-.3-1.9.9-2-.2-1.9-.5-2v-1.9l-.1-2 .7-1.9v-1.9l-.7-2 .6-1.9-.8-1.9-.1-2 .6-1.9.2-2-.4-1.9.1-2-.5-1.9.6-1.9-.6-2 .2-1.9.4-2-.3-1.9.4-2-.9-1.9v-1.9l.3-2-.2-1.9.7-2-.6-1.9.1-1.9v-2l-.3-1.9.5-2v-1.9l-.6-1.9.4-2 .2-1.9-.7-2 .8-1.9-.8-2 .8-1.9-.1-1.9v-2l-.1-1.9.2-2-.9-1.9.2-1.9-.3-2 .1-1.9.7-2v-1.9l-.6-2 .1-1.9-.2-1.9.3-2 .3-1.9-.6-2-.3-1.9.2-2 .6-1.9-.2-1.9-.7-2 .3-1.9-.2-1.9.5-2 .1-1.9-.7-2 .6-1.9-.4-2v-1.9l.1-1.9.3-2-.7-1.9.3-2-.2-1.9-.1-1.9-.1-2v-1.9l.3-1.9.1-2-.3-1.9.1-2 .3-1.9-.2-2 .3-1.9-.1-1.9-.3-2-.3-1.9.3-2 .2-1.9-.7-1.9.8-2 .1-1.9-.6-2 .4-1.9-.4-2-.2-1.9-.1-1.9v-2l.5-1.9-.2-2 .2-1.9.2-2-.4-1.9-.5-1.9.3-2 .3-1.9.2-2-.7-1.9.2-2 .2-1.9-.3-1.9.2-2 .2-1.9-.7-2 .6-1.9-.3-2-.2-1.9.2-2 .2-1.9-.2-2v-3.8l-.2-2 .4-1.9-.8-2 .2-1.9.4-2v-1.9l-.4-1.9-.3-2 .3-1.9.4-2 .2-1.9-.9-2 .3-1.9.3-2-.5-1.9.1-1.9v-2l.2-1.9.3-2-.4-1.9.3-2 .1-1.9-.5-2 .3-1.9-.6-2 .6-1.9-.8-2 .4-1.9.3-2-.7-1.9.4-2-.2-.9-1.4-1.4-.5-2-1.3-1.6-1.4-1.4-.7-1.8-1.6-1.3-1-1.8-.7-1.8-.8-1.9-1.3-1.5-.9-1.7-1.4-1.5-1.3-1.4-1.2-1.6-.3-2.1-1.9-1.2-.4-2.1-1-1.7-1.8-1.1-.4-2.1-1.1-1.6-.6-.7.5-2-.4-1.9-.5-1.9.2-1.9-.1-2 .3-1.9-.6-1.9.5-2-.1-1.9-.4-1.9.1-2v-1.9l.4-1.9-.7-2 .2-1.9v-1.9l-.3-2 .3-1.9.4-2-.7-1.9-.3-1.9.2-2 .2-1.9v-1.9l-.5-2-1.2-1.7-1.9.7-1.9-.2-2 .2-1.9.1-1.9-.2-1.9.9-1.9.1-1.9.3-1.8.7-1.9.6-1.9.2-1.8.6-2.1-.4-1.8.9-1.8.5-1.8.8-1.8.7-2.1-.2-1.7 1.1-1.8.7-2.1-.2-1.6 1.1-1.8.8-2.1-.1-1.5 1.5h-2l-1.7 1.2-1.4 1.9-.1 2.1.4 2 .9 1.8.3 2 .2 2 .9 1.8.3 2 .3 2 .4 1.9.7 1.9-.1 2.1.6 1.9.9 1.8-.2 2.1.3 2 1.2 1.7.1 2.1.1 2 1 1.8-1.2 2.2-2 .1-1.9.5-1.6 1.4-1.9.6-1.7.8h-2.1l-1.7 1-1.9.6-1.5 1.4-2.1.1-1.4 1.6-1.9.5-1.9.6-1.5 1.4-1.7.9-2 .5-1.9.6-1.3 1.6-1.9.6-1.8.9-1.6 1.1-1.5 1.2-1.9.8-1.7.9-1.7 1-1.5 1.3-1.6 1.1-1.7.9-1.6 1.2-1.6 1.1-1.5 1.3-1.8.9-1.2 1.6-1.9.7-1.2 1.6-2 .6-1.2 1.8-1.5 1.2-1.7 1-1.6 1.2-1.3 1.4-1.8.9-1.2 1.6-2 .7-1.1 1.7-1.8.9-1.2 1.6-1.6 1.2-1.3 1.5-1.8.9-1.5 1.2-1.5 1.3-1.7 1.1-.9 1.8-2 .7-1.1 1.8-1.6 1.1-1.1 1.7-1.5 1.2-1.9.9-1.5 1.3-1.4 1.3-1 1.8-1.3 1.5-1.4 1.3-1.5 1.3-1.8.9-1.5 1.4-1 1.7-1.7 1.1-1.3 1.5-1.6 1.1-1.2 1.6-1.2 1.6-1.8.9-.8 2-1.8 1-1.3 1.4-1.7 1.1-.8 2-1.6 1.2-1.3 1.4-1.6 1.1-1 1.8-1.4 1.4-1.4 1.3-1.7 1.1-1.4 1.4-1.6 1.1-1.2 1.6-1.6 1.2-1.2 1.5-1.4 1.3-1 1.7-1.5 1.3-1.8 1-1.4 1.4-1.3 1.5-1.2 1.5-1.3 1.4-1.6 1.3-1.4 1.3-1.2 1.6-1.8.9-1.6 1.2-1.1 1.6-1.2 1.6-2 .7-1 1.8-1.7 1.1-1 1.7-1.7 1.1-1.7 1-1.3 1.5-1.2 1.5-1.8 1-1 1.8-1.7 1-1 1.8-2 .7-1.1 1.7-1.7 1-1.4 1.4-1 1.8-2 .6-1 1.9-1.5 1.2-1.4 1.4-1.6 1.1-1.5 1.3-1.4 1.4-1.8.8-1.4 1.4-1.3 1.5-1.7 1-.8 2-2 .7-1.2 1.6-1.3 1.5-1.6 1.1-1.8.9-1.3 1.5-1.6 1.1-1.5 1.3-1.2 1.6-1.5 1.1-1.2 1.7-1.5 1.2-1.6 1.1-1.3 1.5-1.6 1.1-1.8.9-1.3 1.4-1.5 1.3-1.5 1.3-1.3 1.4-1.5 1.3-1.3 1.5-1.9.7-1.1 1.7-1.7 1-1.3 1.5-1.4 1.4-1.8.8-1.3 1.5-1.9.8-1 1.8-1.7.9-1.4 1.4-1.3 1.4-1.7 1.1-1.5 1.2-1.3 1.5-1.5 1.2-1.9.7-1 1.8-1.5 1.3-1.8.9-1.2-.1-1.2-.6-.3-1.9-1.5-1.5-.1-2.1-.7-1.8-1.4-1.5-.6-1.8-.4-2-.6-1.8-.9-1.8-.8-1.7-.4-2-1.2-1.5-.8-1.8v-2.1l-.8-1.8-1.3-1.5-.5-1.9-.8-1.8-.3-2-.6-1.8-.8-1.8-.8-1.8-.9-1.7-1.2-1.6-.6-1.8-.5-1.9-.7-1.8-.4-2-1.2-1.5-.8-1.8-.5-1.9-.7-1.8-.6-1.9-.5-1.9-1.1-1.6-.6-1.8-.5-1.9-1.2-1.6-.6-1.9-.4-1.9-1.1-1.7-.4-1.9-.9-1.7-1-1.7-.2-2-1.1-1.7-.3-2-1.3-1.5-.9-1.7v-2.2l-1.2-1.6-.3-1.9-1.1-1.7-.2-2-1-1.7-.8-1.8-1.1-1.6v-2.1l-1.6-1.5.1-2.1-1.2-1.6-.4-2-.7-1.8-.7-1.8-1.4-1.5-.1-2.1-1-1.7-.5-1.9-1.1-1.6-.4-1.9-1.2-1.6-.3-2-1.4-1.6-.1-2-1.3-1.6.1-2.1-1.6-1.5-.2-2-.7-1.8-1-1.7-.5-1.9-.7-1.7-1.2-1.7-.7-1.8-.1-2.1-1-1.6-.7-1.9-.9-1.7-.2-2-1-1.7-.5-1.8-2.3-.8-1.9.6-2 .4-1.7 1.1-1.9.5-1.9.5-1.9.4-1.6 1.5-2 .2-1.9.5-1.7 1-2 .2-1.8.9-2 .2-1.7 1.1-1.9.5-1.9.5-1.7 1.2-1.8.7-1.9.5-1.8.8-1.9.5-1.8.8-2 .3-1.9.6-2 .3-1.8.8-1.7 1.1-1.9.4-1.9.5-1.8.8-1.8.7-1.9.8-1.9.4-1.7 1.1-1.9.6-1 1.6.4 1.9.6 1.8.4 1.9.1 2 .4 1.9.9 1.8-.4 2.1.8 1.8.3 1.9 1 1.8.4 1.9.1 2v2l.6 1.9.1 1.9 1.3 1.8.4 1.9-.4 2.1.7 1.8.8 1.8-.2 2.1 1 1.7.3 2v2l1.2 1.7v4l.5 1.9.3 1.9.5 1.9.7 1.8.7 1.9-.1 2 1.1 1.8-.3 2 .3 1.9 1.2 1.8.2 1.9.4 1.9.2 2 .1 2 .7 1.8.5 1.9.6 1.9v2l1 1.7-.2 2.1 1.1 1.7.2 2 .1 2 1 1.7.3 2-.1 2 .3 1.9.4 1.9.6 1.9.7 1.9.8 1.8-.1 2 .9 1.8-.3 2.1.7 1.9.3 1.9.7 1.9.1 1.9.6 1.9.8 1.8-.3 2.1.5 1.9.7 1.8.8 1.9-.1 2 .4 1.9.4 2 .2 1.9.9 1.8.5 1.9.5 1.9.5 1.9.4 1.9v2l.6 1.9.2 2 .4 1.9.9 1.8-.2 2 1 1.8v2l.4 1.9.7 1.9.4 1.9.4 1.9.8 1.8-.4 2.1.8 1.8.1 2 .4 1.9.6 1.9.3 1.9.7 1.9.7 1.8.5 1.9v2l.4 1.9.6 1.9.6 1.8.3 2 .1 1.9.6 1.9.4 1.9 1 1.8.3 1.9.2 2 1.2 1.6 1.1 1.6 1 1.7.9 1.7.8 1.8.6 1.9.7 1.8 1.4 1.4.9 1.8 1.3 1.5.9 1.7.9 1.7 1.2 1.6 1.2 1.5 1.3 1.5.8 1.8 1.6 1.2 1.2 1.5 1.2 1.6 1.3 1.5 1.3 1.4 1 1.8 1.5 1.2 1.7 1.1 1.3 1.4 1.5 1.3 1.9.7 1.5 1.2 1.6 1.2 1.7.9 1.8.8 1.7 1.1 1.9.2 2 .1 1.8.6h2l1.9.6 1.9.3 1.8.8 2-.3 1.8 1 2-.1h1.9l1.9.1h2l1.9-.2 1.9.2 1.9-.3 2 .2 1.9-.1 1.9-.4 1.9-.7 1.9.2.1-.2 2 .2 1.9-.7 1.8-.7 2 .2 1.7-.8 2-.4 1.6-1.2 1.8-.5 1.9-.5 1.5-1.4 1.9-.4 1.5-1.3 1.9-.6 1.6-1.1 1.9-.5 1.3-1.5 1.9-.7 1.4-1.4 1.6-1 2.1-.3 1.2-1.7 1.6-1.1 2.1-.3 1.1-1.8 1.8-.8 1.6-1 1.6-1 1.7-.9 1.7-1 1.5-1.2 1.5-1.3 1.8-.8 1.3-1.6 1.5-1.3 1.9-.6 1.4-1.4 1.4-1.4 1.7-1 1.7-1 1.4-1.4 1.8-.8 1.6-1.1 1.3-1.5 1.5-1.3 1.9-.7 1.4-1.3 1.5-1.3 1.8-.9 1.2-1.6 1.8-.8 1.6-1.2 1.4-1.4 1.5-1.2 1.9-.7 1.2-1.8 2-.5 1.2-1.7 1.8-.8 1.3-1.5 1.8-.9 1.6-1.1 1.5-1.2 1.2-1.7 1.5-1.2 1.9-.8 1.7-.9 1.6-1.2 1.4-1.4 1.4-1.4 1.8-.8 1.6-1.2 1.3-1.5 1.4-1.4 1.7-1 1.8-.9 1-1.9 2-.7 1.6-1.1 1.5-1.3 1.5-1.1 1.5-1.4 1.6-1.1 1.1-1.7 1.9-.8 1.4-1.4 1.7-1 1.4-1.3 1.7-1 1.7-1.1 1.2-1.6 1.8-.9 1.4-1.4 1.7-.9 1.5-1.3 1.5-1.2 1.2-1.7 1.9-.8 1.5-1.2 1.2-1.7 2-.6 1.2-1.6 1.3.2 1.3.6.6 1.8.7 1.8.5 1.9v2l1.3 1.6.4 1.9.4 1.9.6 1.8.4 1.9.8 1.8.2 1.9.9 1.7-.1 2.1.7 1.7.7 1.8.1 2 .9 1.7 1 1.7v2l.6 1.8.7 1.8.3 1.9-.3 2 .8 1.8.6 1.9-.2 1.9.4 1.9.6 1.9.1 1.9v2l.8 1.8v1.9l-.2 2 .9 1.8-.2 2v1.9l.3 1.9.2 2 .1 1.9.1 1.9.1 1.9-.5 2-.4 1.9.3 1.9-.3 1.9v2l-.9 1.7.1 2-.4 1.9-.8 1.8-.5 1.8-.2 1.9.1 2-.7 1.8-.2 1.9-.2 1.9-.6 1.9-.8 1.8.4 2-1.1 1.8-.1 1.9.3 2-.6 1.8-.5 1.9-.5 1.9.1 1.9-1 1.8.1 1.9-.4 1.9-.3 1.9-.2 1.9-.7 1.8z"/><path fill="none" stroke="#e16a62" stroke-linecap="round" stroke-miterlimit="10" stroke-width="4.5" d="m531 502.3-.9.3-.8.3-.8.3-.9.2-.9.3-.8.4-.9.3-.9.2-.8.4-.9.2-.8.4-.9.3-.8.2-.9.3-.9.3-.8.3-.8.4-.9.3-.9.2-.8.3-.9.3-.9.3-.8.3-.9.3-.8.3-.9.3-.9.2-.8.4-.9.3-.8.2-.9.4-.8.2-.9.4-.8.3-.9.3-.8.3-.9.2-.8.4-.9.2-.9.3-.8.4-.9.2-.8.3-.9.4-.8.2-.9.3-.9.3-.8.3-.9.3-.8.4-.9.3-.9.2-.8.3-.9.2-.8.4-.9.3-.9.3-.8.3-.9.3-.8.3-.9.3-.9.2-.8.4-.9.3-.8.3-.9.2-.8.4-.9.3-.9.2-.8.3-.9.4-.8.3-.9.3-.9.3-.8.3-.9.3-.8.3-.9.2-.9.4-.8.2-.9.3-.9.3-.8.4-.9.2m61.5-49.6v.1l-.8.2-.9.3-.9.3-.8.2-.9.4-.9.3-.8.4-.9.2-.9.3-.8.2-.8.4-.9.3-.9.2-.9.3-.8.4-.9.3-.8.3-.9.3-.9.3-.8.2-.9.3-.8.4-.9.3-.9.3-.9.2-.8.3-.9.3-.8.3-.9.3-.9.3-.8.4-.8.3-.9.2-.9.4-.9.2-.8.4-.9.2-.8.4-.9.3-.9.2-.8.3-.9.4-.8.3-.9.3-.9.3-.8.3-.9.2-.9.3-.8.4-.9.2-.8.4-.9.3-.9.3-.9.2-.8.4-.9.2-.9.3-.8.4-.9.2-.8.4-.9.3-.9.3-.9.2-.8.4-.9.3-.8.2-.9.4-.9.2-.9.3-.8.4-.9.3-.8.3-.9.2-.9.3-.9.3-.8.3-.9.4v-.1m13.1-4 4.7 25.6m10.6-30.8.1.9.2.8.2.9.2.9.1.9.2.9.2.9.1.9.2.9.2.8.2.9.1.9.2.9.1.9.3.9.1.9.2.8.1.9.2.9.2.9.1.9.2.9.2.9.2.9.1.9.2.8.2.9.2.9.1.9m9.6-31 .2.9.2.9.2.9.1.9.2.9.2.8.2.9.2.9.2.9.1.9.2.9.2.8.2.9.2.9.2.9.2.9.1.8.2.9.2.9.2.9.2.9.2.9.2.9.1.8.2.9.2.9.2.9.2.9.2.9m8.5-30.2.2.9.2.9.2.8.1.9.2.9.2.9.2.9.2.9.2.9.2.9.2.9.1.9.2.9.2.9.2.9.2.9.2.9.2.9.1.9.2.9.2.9.2.9.2.9.2.9.2.9.2.9.2.9.1.9m335.6-122.4.8-.4.9-.4.8-.3.8-.4.9-.4.9-.3.8-.4.8-.4.9-.3.9-.4.8-.3.9-.4.8-.3.9-.3.9-.3.8-.3.9-.3.9-.3.9-.2.8-.3.9-.2.9-.3.9-.2.9-.2.9-.2.9-.2.9-.1.8-.2.9-.2.9-.2.9-.1 1-.1.9-.1.9-.2.9-.1.9-.1.9-.1.9-.1.9-.1.9-.1.9-.1 1-.1.9-.1h.9l.9-.1m-23.1 44.1-.2-.9-.3-.9-.1-.9-.2-.9-.2-.9-.2-.9-.1-.9-.2-.9-.2-.9-.1-.9-.2-.9-.2-.9-.2-.9-.2-.9-.1-.9-.2-.9-.2-.9-.2-.9-.1-1-.2-.8-.1-1-.2-.9-.2-.9-.2-.9-.2-.9-.1-.9-.2-.9-.2-.9-.1-.9-.2-.9-.2-.9-.1-1-.2-.9-.1-.9-.2-.9-.1-.9-.2-.9-.2-.9-.1-.9-.1-.9m22.9 32.9-.3-.9-.1-.9-.2-.8-.2-.9-.2-.9-.2-.9-.1-.9-.2-.8-.2-.9-.2-.9-.1-.9-.2-.9-.2-.9-.1-.9-.2-.8-.1-.9-.3-.9-.1-.9-.2-.9-.2-.8-.1-.9-.2-.9-.1-.9-.2-.9-.1-.9-.2-.9-.2-.9-.2-.9-.1-.9-.2-.8-.1-.9-.2-.9-.1-.9-.2-.9-.1-.9-.2-.9-.1-.9-.2-.9-.1-.9-.1-.9-.2-.8-.1-.9M859 421.4l.9-.4.8-.3.9-.3.8-.3.9-.3.9-.2.9-.3.8-.3.9-.2.9-.2.9-.2.9-.2.9-.2.9-.2.9-.3.9-.2.9-.1.9-.2.9-.2.9-.1.9-.2.9-.2.9-.1.9-.2.9-.1.9-.1.9-.2.9-.1.9-.2.9-.1.9-.1 1-.1.9-.1.9-.1.9-.1.9-.1.9-.1h.9l.9-.1 1-.2h.9l.9-.1.9-.1h.9l.9-.1 1-.1h.9l.9-.1h.9l1-.1h.9M596 639.5c-6.4 4.3-14 10.2-22.2 16.1M764.6 640c-6.4 4.3-14 10.2-22.2 16.1"/><path fill="#501915" d="m728.9 164.9.3.8.8.6.5.8.8.5.3.9.5.8.5.8.6.6.3 1 .6.6.9.5.1 1.1 1 .4.2.9.6.8.9.4.6.7.4.9.8.5.4.8.4.8.6.8.8.5.6.7.7.6.2 1 .7.6.8.6.2 1 1 .3.7.5.2 1.2.8.5.4.8.9.4.5.8.8.5.6.7.8.5.4.9 1 .3.3 1.1.6.6 1 .3.8.5.5.8.3 1.1h1.2l.5.8.7.6.8.5.6.7.6.7.8.5.4.9.5.8h1.2l.5.8.7.6.9.4.6.7.9.4.4 1 .7.6.8.4.6.7h1.1l.8.5.5 1 1 .1.6.8 1 .1.3 1.2 1.2-.2.6.8.9.3.8.5.5.8 1 .3.9.3.6.8.9.3.5.8.9.4.5.9h1.1l.4 1 1.2-.1.8.4.5 1 .7.6.7.5.7.6.9.4.7.6 1 .2.7.7 1 .1.4 1.1h1.1l.6.8.8.4.8.4.7.7.7.6.5.9 1 .2.9.3.7.6.4 1 1.1.1.7.5.4 1h1.1l.3 1.2 1 .2.9.3.8.5.4.9.9.4.5.9.7.6 1 .1.6.8.7.6.5.8.6.7.6.7.3.9.5.8.9.4.6.7.2 1 1 .4.1 1.1.7.6.4.9.4.8.8.5.1 1.1.8.6.7.6.2.9.9.6v1.1l.5.7.8.6.4.9.4.8.4.9.4.7.4.9.9.6-.2 1.1.4.9.8.6.2.9.5.8.4.8.4.8.8.7.2.9.4.8-.1 1.1.5.7.5.8-.1 1 .2.9.9.6-.1 1.1.7.7.7.6.5.7.6.7.5.9.6.6 1.1.2.8.5.5.8.8.4.7.6.4.9.9.4.4.9 1 .3.3 1 .7.6 1 .3.6.7.8.4.5.8.9.4.6.7.4.9.7.6.3.9.7.6 1 .3.6.8.8.5.1 1 .8.6.2 1 .7.6 1 .4.5.8.4.8.2 1 .7.7.5.7.9.4.5.9.2.9.6.7.7.7v1l.7.7.3.9.6.7.9.5v1.1l.8.6.5.7.1 1.1.6.6.3.9.2.9.7.7.6.7.2 1 .4.8.2.9.4.8.2.9.9.6.2.9.2.9.2.9.4.9.4.8.5.8.2.9.4.8.6.8.6.7-.3 1.1.8.7-.2 1.1.5.7.7.8.1.9.1.9.5.8-.1 1 .8.7.3.9.1.9.3.9.3.9.1.9.6.8.2.9-.1 1 .1.9.3.9.5.8.3.9.2.9-.1.9.8.8-.2 1 .6.7-.1 1 .4.9.1.9.6.7.3.9-.1 1 .5.8.5.8-.4 1 .8.7-.1 1 .5.8.3.9.4.8-.3 1 .1 1 .8.7-.2 1 .7.7-.1 1 .7.8.1.9v1.8l.2.9.6.8.3.9.4.8-.1 1 .2.8.7.8-.1 1 .3.8.2.9-.2 1 .8.8.4.8-.5 1.1.2.8.8.8-.1 1 .4.8v.9l.3.9v.9l.2.9.4.8.6.8.2.9.2.9v1l.1.9.5.8v.9l.3.9-.1 1 .5.8-.3 1 .7.7.3.9.2.9-.1 1 .5.8v.9l-.2 1 .6.8-.2 1 .7.8.3.9-.1.9.1.9v.9l.4.9.1.9.1.9-.2 1 .4.9.6.8-.6 1 .7.8-.2 1v.9l.7.8.3.9-.2 1 .2.9-.2.9.5.9.1.9.4.8.1 1 .1.9-.5 1 .5.8.3.9-.2.9-.2 1 .5.9.1.9-.2.9.1.9.1.9-.1.9.1.9.2.9.3.9.1.9-.2 1 .4.9-.4.9-.3.9.6.9.5-.1.9.1.9-.4.8-.4 1.1.4.6-.9 1-.1.8-.3.8-.4h1l.7-.8.7-.5.9-.3.9-.2h1l.6-.9 1.1.2.8-.5.6-.8.9-.2.7-.5.9-.2.7-.7.9-.2 1-.2.8-.3.7-.7.8-.4.8-.5.9-.2.7-.7.8-.4h1l.6-.8h1l.7-.7.8-.4.9-.2.8-.3.8-.6.9-.2.9-.2.6-.9.9-.2.7-.6.9-.3 1 .1.8-.4.6-.9 1-.1.9-.3.6-.7.7-.7 1.2.3.6-.7.8-.6.7-.6 1 .1.7-.7 1-.1.8-.3.7-.7.8-.5.9-.1.8-.5.9-.2.8-.4.7-.7.9-.3.8-.4.7-.7.9-.2.7-.5.8-.5h1l.6-.8.9-.4.7-.6 1 .1.6-.9 1.1.1.5-1 1.1.1.7-.5.9-.2.7-.7.6-.7 1.1.1.7-.7.9-.1.7-.8.8-.5.7-.5.9-.2.9-.3.6-.8 1.1.1.7-.5.6-.9 1-.2.7-.5.8-.5.9-.1.9-.4.6-.7.8-.5 1-.1.9-.1.6-1 .9-.2.7-.5 1-.2.9-.2.8-.4.7-.6.8-.4.9-.3.8-.4.6-.8.7-.6.9-.3.8-.5.9-.3h1l.7-.6.6-.9.8-.3.9-.3h1l.6-.9.9-.2.7-.6 1-.1.8-.4.8-.5.7-.6h1l.7-.7.7-.6 1-.2.7-.5.7-.6.9-.4.9-.3.6-.7.9-.2.9-.3 1-.2.5-.8 1-.1.7-.8 1-.1.8-.3.5-1h1.1l.7-.6.9-.2.6-.9h1l.8-.5.6-.8.8-.5.9-.2.9-.2.8-.6.9-.2.6-.7.9-.4.9-.3.7-.6.7-.6 1.1.1.6-.7.7-.7 1.1.2.9-.4.4-1.1.9-.3.8-.6.9-.2.7-.5h1.1l.8-.3.8-.6.6-.8 1-.1.7-.6.7-.6.8-.4 1-.1.7-.8.7-.5.9-.3.8-.5.8-.3 1-.1.7-.7.8-.4.8-.4.8-.6.7-.5 1.1-.1.8-.3.9-.4.8-.4.8-.4.5-1 .9-.2.8-.5.9-.3.7-.5 1-.2.7-.6.8-.5.8-.4 1-.1.6-.9.8-.4.8-.4.9-.2.9-.3.9-.3.6-.8 1-.1.7-.6.9-.3.6-.7.8-.6.8-.4.9-.3.9-.3.8-.3.8-.5.9-.3.5-1 .8-.4 1.1.2.8-.5.8-.6.7-.6.6-.7.8-.5.9-.3.8-.3 1-.2.6-.7.9-.2.8-.5.9-.2.8-.5.7-.7.8-.5.9-.1.9-.3.5-1 1-.1.7-.5.7-.6h1.1l.5-1 1.1.1.6-.7.8-.4.8-.5.8-.4.9-.2.7-.7.9-.3.9-.2.6-.7.9-.3.7-.6.9-.1.9-.4.5-.9h1.1l.7-.5.9-.3.5-.9 1.1.1.7-.7-.2-.9v-.9l-.3-.9.5-1-.8-.8.3-1-.6-.8.1-.9-.1-1 .2-.9-.8-.8v-1.8l-.5-.9.3-1-.1-.9-.9-.7-.1-.9.2-1-.8-.7-.1-.9-.3-.9-.1-.9-.8-.7-.1-1 .1-1-.6-.7-.4-.8-.3-.9-.7-.7.2-1.1-.4-.8-.9-.6.2-1.1-.9-.6-.5-.7-.6-.8v-1l-.2-.9-.5-.8-.9-.5-.3-1-.3-.8-.8-.6-.4-.8-.6-.8-.7-.5V297l-.7-.6-.7-.6-.4-.8-.5-.8-1-.4-.6-.7-.6-.7-.5-.7-.2-1.1-.9-.5-.5-.7-.6-.7-1.1-.2-.6-.7-.4-.9-.8-.5-.6-.6-.9-.4-.7-.7-.6-.6-.6-.8-.4-.8-.8-.6-1.1-.1-.7-.6-.5-.8-.8-.5-.5-.8-.8-.4-1-.2-.6-.7-1.1-.1-.6-.8-.6-.7h-1.1l-.8-.4-.7-.7-.5-.9-1.2.2-.6-.8-.7-.6-.8-.4h-1l-.9-.3-.7-.7-.8-.4-.9-.2-.7-.6-.9-.3-.7-.6-.9-.4-.8-.3-.9-.3h-1l-.6-.8-.9-.2-.9-.4-1 .1-.9-.1-.8-.4-.7-.8-.9-.1-.8-.5-1-.1-.7-.6-.8-.4-.9-.2-1 .1-.9-.4-.7-.5-1-.1-.9.1-.8-.5-.8-.7-.9-.1-1 .1-.8-.6-.9-.1-.9-.2-.8-.3-.9-.2-.9-.2-.8-.6-1 .2-.8-.6-.8-.4-.8-.5-1 .1-.9-.2-.9-.1-.9-.3-.7-.6-.9-.3-.9-.2-1 .3-.8-.5-.8-.8-1 .3-.7-.7-.9-.3-1.1.4-.6-.9-1.1.4-.7-.8-1-.1-.8-.4-1 .2-.7-.9-1 .1-.7-.6h-1l-.8-.6-1.1.4-.7-.5-1-.2-.7-.6h-1l-.9-.2-.7-.6-.9-.1-.8-.7-1 .1-.8-.5-.8-.5h-.9l-.8-.5-.8-.5-.7-.6-1.1.1-.7-.5-1-.2-.6-.9-.9-.2-.7-.4-1-.2-.9-.3-.5-.9-.8-.4-.8-.5-.8-.5-.8-.3-.9-.3-.5-1-1-.1-.9-.3-.7-.6-.3-1.1-.8-.4-.8-.4-.7-.7-.3-1-.6-.6-.8-.5-.6-.7-.5-.7-1-.4-.5-.8-.5-.8-.4-.8-.2-.9-.7-.7-.7-.6-.4-.8.2-1.1-.6-.8-.4-.8-.3-.8.2-1-.2-.9-.2-.9-.6-.8-.1-.9-.5-.9v-.9l.1-.9.4-.9-.1-.9-.1-1v-.9l-.2-.9-.4-.9v-1.8l-.1-.9v-.9l.4-1v-.9l-.2-.9-.4-.9.3-.9v-.9l-.1-.9-.7-.9.6-.9v-1l-.2-.9v-.9l-.4-.9-.4-.8.2-1-.2-.9-.3-.8v-1l.5-.9-.6-.9.4-.9-.6-.9-.2-.9.3-.9-.2-.9-.6-.9.4-.9-.4-.9v-.9l-.2-.9-.5-.9.2-.9v-1.9l-.2-.8-.3-.9-.4-.9v-.9l-.1-.9-.1-.9-.2-.9-.2-.9-.7-.7.2-1-.1-.9-.8-.8-.2-.9-.3-.8-.1-.9v-1l-.2-.9-.5-.8-.5-.8.1-.9-.7-.8-.4-.8-.1-.9-.5-.8.3-1.1-.4-.8-.4-.8-.5-.8-.6-.7-.2-1-.2-.9-.7-.6-.6-.8-.2-.8v-1.1l-1-.5-.1-.9-.8-.7-.1-.9-.5-.7-.5-.8-.3-.9-.4-.8-.5-.8-1-.4-.5-.8-.1-1-.7-.6-.4-.8-.3-1-.7-.6-.5-.7-.8-.6-.7-.6-.6-.6-.5-.8-.1-1.1-.9-.4-.5-.8-.8-.5-.2-1-1.1-.3-.1-1.1-.6-.6-.6-.8-.7-.6-.8-.5-.5-.8-.6-.7-.7-.6-.7-.5-1-.3-.2-1.1-.7-.6-.9-.4-.8-.5-.7-.5-.5-.9-.7-.5-.8-.4-.6-.8-.6-.7-.9-.3-.5-.9-1-.1-.7-.7-.5-.7-.8-.5-.7-.6-.6-.7-1.1-.1-.4-1-1-.1-.9-.4-.4-1-.8-.4-.7-.6h-1.1l-.6-.7-.8-.5-.7-.6-1-.1-.5-1h-1l-.6-.8-.8-.4-.9-.3-.9-.3-.8-.5-.7-.5-.6-.8-1-.1-.6-.9-1.1.3-.6-.9-.9-.1-.7-.7-.9-.3-.9-.3-.7-.6-1-.1-.6-.8-.9-.1-.9-.4h-1l-.6-.9-1 .1-.7-.6-.9-.3-.9-.2-.8-.5-.7-.6-.9-.2-.9-.2-.9-.2-.9-.1-.8-.6-.7-.7h-1l-.8-.5-.9-.3-.9.1-.9-.2-.8-.7-.8-.3-.9-.3-1 .3-.9-.3-.8-.4-.9-.2-.9-.4h-.9l-.8-.5-.9-.1-.9-.1-.9-.2-.9-.4-.9-.1-1 .1-.8-.4h-.9l-.9-.4-.9-.1-.9-.2-.8-.6-1 .2-.8-.3-.9-.4-1 .3-.9-.2-.9.1-.8-.6-1 .1-.9-.2-.9.4-.9-.4-.9.1-.9-.4h-.9l-.9-.1-.9-.5-1 .2-.9-.2-.9.3-.9-.2-.9.4-.9-.4-.9-.1-.9-.3-1 .4-.9-.1h-.9l-.9-.1-.9-.2-.9-.2-.9.7-.9.1-1-.4-.9.3-.9-.3-.9-.2h-.9l-.9.4-1-.2-.9.1-.8.6-1-.6-.9.3-.9.2-.9-.1-.9.7-.9-.1-.9.1-1-.3-.8.7-.9.1-.9-.1h-.9l-1-.1-.9.4-.8.5-1-.2-.9.2-.9-.1-.8.6-.9.3-.9.1-1-.4-.8.8-1-.2-.8.6-.9.1-.9.2-1-.2-.8.6-.9.3-.8.2-.9.3-.9.3-.9.1-.9.4-.9-.1-.9.3-.7.9-1.1-.4-.8.5-.7.6-1-.1-.9.4-.7.7-.9.2-.9.3-1-.2-.9.4-.6.9-.9.3-1-.1-.8.4-.7.6-.9.3-.8.5-1-.1-.8.5-.9.2-.7.7-.8.6-.9.1-.7.6-1.1-.1-.8.6-.7.6-.8.5-.8.4-.9.2-.7.5-.8.5-.8.5-.8.4-1 .2-.8.4-.6.8-.9.2-.5.9-1 .2-.6.8-1 .1-.4 1-.9.4-.9.2-.6.8-.7.5-1 .2-.7.6-.8.4-.4 1-1 .2-.4 1-.8.4-.8.6-.6.6-1.1.2-.6.7-.7.5-.6.8-.8.4-.4.9-.8.5-.8.5-.4 1-.8.4-1 .4-.5.7-.3 1-1.2.1-.5.8-.7.6-.4.9-.4.8-.8.6-.5.7-.9.5-.8.5-.3.9-.9.4v1.2l-.7.6-.6.7-.9.5-.1 1-.8.5-.3 1-1.1.3-.5.8-.5.7-.2 1-.5.8-.5.7-.5.8-.3.9-.6.6-.4.9-.5.7-.9.5-.4.9-.2.9-.6.7-.3.9-.4.8-1 .5-.3.8-.4.9.1 1-.5.8-.7.7v1l-.9.6-.4.8.4 1.1-.4.8-.4.8-.6.8-.2.9.1.9v.9l-.4.9.4.9-.4 1 .3.9.7.6v1.1z"/><path fill="#c07d6c" d="m859.2 246-.2.8v.8l-.1.9v.8l-.2.8-.2.8-.1.8-.2.8-.2.8-.1.8-.4.7-.3.8-.3.8-.2.8-.4.7-.4.7-.4.7-.3.8-.6.6-.4.7-.5.7-.4.7-.5.6-.6.6-.5.7-.7.5-.6.5-.6.6-.5.6-.7.5-.6.5-.7.5-.7.4-.7.5-.7.3-.8.4-.7.4-.7.4-.7.3-.8.3-.8.3-.8.2-.8.2-.7.3-.8.2-.8.2-.8.1-.9.2h-.8l-.8.1h-.8l-.8-.1h-1.7l-.8-.1-.8.1-.8-.2-.8-.2-.9-.1-.7-.2-.8-.3-.8-.1-.8-.4-.8-.1-.7-.4-.8-.3-.7-.4-.7-.4-.8-.3-.7-.5-.7-.5-.7-.4-.6-.4-.7-.5-.6-.5-.7-.5-.6-.6-.6-.6-.6-.6-.5-.6-.5-.6-.5-.7-.6-.6-.4-.7-.4-.7-.5-.7-.4-.7-.4-.7-.3-.7-.4-.8-.3-.7-.3-.8-.4-.7-.2-.8-.3-.8-.1-.8-.2-.8-.2-.8-.1-.8-.1-.8-.1-.8-.2-.9v-.8l.1-.8v-1.6l.1-.9.1-.8.2-.8v-.8l.2-.8.1-.8.2-.8.3-.8.3-.8.2-.8.3-.7.4-.8.3-.7.4-.7.4-.7.4-.8.5-.6.4-.8.4-.7.5-.6.5-.6.6-.6.6-.6.5-.7.6-.5.6-.6.6-.5.7-.4.7-.6.7-.4.6-.5.7-.5.7-.3.7-.4.8-.4.7-.4.8-.3.7-.3.8-.3.7-.4.8-.2.9-.1.7-.2.9-.2.8-.1h.8l.8-.1.8-.1h.8l.9-.1.8.1h.8l.8.1h.8l.8.2.9.1.8.1.7.3.8.2.8.2.8.3.8.2.8.3.7.3.8.4.7.3.7.4.8.4.6.5.7.4.6.6.7.5.6.5.6.5.6.6.7.5.6.6.5.6.5.6.6.6.5.7.5.6.4.7.5.7.3.8.5.6.3.8.4.7.2.8.4.7.3.8.3.8.2.8.2.8.2.8.1.8.2.8.2.8v2.5z"/><path fill="none" stroke="#501915" stroke-linecap="round" stroke-miterlimit="10" stroke-width="2.88" d="m836.9 242.9-1.5.8-1.5.8-1.5.9-1.4.8-1.5.8-1.5.8-1.5.8-1.4.9-1.5.8-1.5.8-1.5.8"/><path fill="#b5e0fe" d="m881.8 793.6.9.5 1 .1 1-.7h1l1-.1 1 .7 1-.2 1-.2 1.1.4 1 .4 1-1 1 .8 1 .1 1-.3 1 .2 1-.7 1.1.9 1-.5 1 .4 1-.3 1 .3 1-.1 1-.8 1 .3 1 .4 1.1-.7 1 .6 1-.1 1-.2 1 .4 1 .1 1 .2h1l1.1-.4 1-.3 1 .1 1-.2 1-.1 1 .6 1-.3 1.1.6h1l1-.7 1 .7 1-.5h1l1 .1 1.1.4 1-1 1 .6h1l1 .3 1-1h1l1.1.5 1 .4 1-.3 1-.5 1 1 1-.7 1 .8 1.1-.8h1l1 .2h1l1 .4 1-.8 1 .3h1l1.1.2 1 .4 1-.5 1 .2 1-.5 1-.2 1 .6 1-.7 1.1.3h1l1 .2 1 .1 1-.4 1 .4h1l1.1-.5 1 .5 1-.1 1 .1 1-.6 1 .7 1 .1 1.1-.1 1 .1 1-.2 1-.4 1 .1 1 .6 1-.7 1.1.1 1 .3 1 .3 1-.5 1 .8 1-.5 1-.4 1.1.4 1-.3h1l1 .2 1 .1 1 .3 1-.5 1.1.3 1-.2 1 .1 1-.6 1 .1 1 .7 1-.9 1 1 1.1-.8 1 .1 1 .4 1-.1 1 .2 1-.5 1 .8 1.1-.8 1-.2 1 .2 1 .6 1-.8 1 1 1.1.1 1-.4 1-.8 1 .2h1l1 .6 1 .2 1.1-.2 1-.6 1 .2 1 .4 1 .3 1-.7 1 .1 1-.1 1.1.3 1-.4h1l1 .7 1-.1 1-.9 1 .2 1 .4 1-.4 1.1.8 1-.6 1 .7 1-.3 1-.7 1 .9 1-.7 1.1-.1h1l1 .2 1 .3 1 .4 1-.2 1-.5 1.1.1 1 .4 1-.1 1-.6 1 .7 1-.3 1-.5 1 .4 1.1-.2 1 .1 1 .5 1-.5h1l1 .7 1-.5h2.1l1-.3 1 .4 1-.3 1-.4 1 1 1-.7 1-.2 1 .1 1.1-.1 1 .5 1-.3 1-.1 1 .8 1 .1 1.1-.6 1 .1 1-.2 1-.3 1 1h1l1-.2 1.1-.2 1 .1 1-.3 1 .3 1 .3 1 .1h1l1.1-.5 1 .5 1-.5 1 .1 1-.7 1 .9 1-.7 1.1.2 1-.4h2l1 .6 1 .2 1.1.1 1-.9 1 .4 1-.1 1 .5 1-.2 1.1.3 1-.5 1-.3 1 .4 1 .1 1 .4 1.1-.4 1 .4 1-.3 1-.1 1 .2 1 .1 1-.5h1.1l1-.1 1 .6 1-.4 1 .3 1.1-.7 1 .1 1 .7 1-.6 1 .2 1 .4 1.1-.5 1 .4 1-.8 1 .7 1 .1 1 .1 1.1-.1 1-.4 1 .5 1-.1 1-.7 1 .8 1.1-.2 1-.5 1-.1 1 .7 1-.9 1 .4 1-.3 1.1.9 1-.8 1 .3 1 .5h2.1l1-.7 1-.1 1 .1 1 .6 1 .2h1.1l1-.7 1-.3 1 .1 1 .1 1-.1 1.1.6 1-.2 1-.3 1-.2 1 1 1.1-.8 1-.1h1l1 .1 1.1.7 1 .1 1-.6 1-.4 1 .7 1 .3 1.1-.9 1 .1h1l1 .5 1.1-.3 1 .5 1-.1 1-.3 1.1.4 1-.5-.5-.9.3-1-.2-1-.1-1.1.5-1-.1-1 .4-1-.7-1 .8-1 .1-1-.6-1 .6-1.1-.5-1-.2-1 .7-1v-1l-.1-1-.5-1 .5-1-.2-1.1.1-1-.3-1-.4-1 1-1-.2-1-.5-1.1.1-1-.3-1-.3-1 1.1-1-.7-1-.2-1 .9-1.1-.6-1 .3-1-.1-1 .2-1v-1l.2-1-.6-1.1.6-1-.7-1-.3-1 .1-1 .3-1-.4-1 1-1-.5-1v-2l.2-1 .3-1.1-.5-1-.6-1 .7-1-.4-1 .7-1-.7-1 .2-1 .4-1-.6-1 .1-1.1.6-1v-1l-.4-1-.1-1 .4-1 .1-1-.6-1 .3-1-.1-1.1-.4-1-.1-1 .3-1 .1-1-.3-1 .3-1 .4-1-.8-1 .2-1.1.7-1-.2-1-.3-1 .1-1 .5-1-.2-1-.7-1 .7-1.1-.9-1v-1l.6-1 .2-1-.7-1 .8-1-.8-1 .6-1.1.4-1-.9-1 .3-1 .3-1-.6-1 .1-1 .2-1-.3-1.1.4-1 .2-1-.2-1 .3-1-.3-1 .6-1-.9-1 .3-1.1.6-1-1-1-.1-1 .1-1 .8-1-.7-1 .8-1.1-.8-1-.3-1 .1-1 .6-1 .1-1 .1-1-.6-1.1.3-1 .4-1-.7-1-.3-1 1-1 .1-1-.4-1.1-.5-1 .7-1-.9-1 .4-1 .2-1-.5-1 .3-1 .7-1.1-.7-1-.3-1 .5-1 .4-1-.4-1v-1l-.5-1 .2-1.1.7-1-.7-1-.2-1 .5-1-.1-1v-1l.1-1.1.3-1 .2-1-.7-1v-1l.2-1-.5-1 .5-1.1-.3-1 .4-1 .4-1v-1l-1-1 .7-1-.1-1.1.2-1-.4-1 .3-1-.3-1 .6-1-.9-1 .5-1.1-.5-1 .2-1 .6-1-.2-1-.5-1 .3-1 .2-1.1-.7-1 .6-1-.4-1 .4-1-.3-1-.3-1 .5-1.1-.1-1 .3-1 .2-1-.9-1 .1-1 .3-1.1-.3-1 .4-1 .1-1 .1-1-.4-1 .3-1.1.4-1 .1-1-1-1 .6-1-.4-1-.4-1.1v-1l.8-1-.2-1-.1-1-.4-1 .4-1.1-.2-1 .1-1 .6-1-.8-1 .4-1 .5-1.1v-1l-.4-1-.3-1 .5-1-.1-1.1-.3-1 .5-1v-1l-.2-1-.4-1 .4-1.1-.3-1 .2-1v-1l-.4-1 .5-1.1-.3-1-.2-1 .5-1-.6-1 .4-1.1.3-1-.7-1 .7-1-.6-1-.3-1 .8-1.1.1-1-.9-1v-1l.2-1 .5-1.1-.6-1v-1l.2-1 .3-1-.3-1 .5-1.1v-1l-.5-1v-1l.3-1-.3-1.1.7-1-.8-1 .4-1 .4-1-1-1 .2-1.1.9-1-.3-1 .3-1-.1-1-.8-1.1.3-1 .5-1-.3-1-.3-1 .6-1-.9-1.1.3-1v-1l.6-1v-1l-1-1.1 1-1-.9-1v-1l1-1-1-1 .4-1.1-.3-1 .8-1-.8-1-.2-1 .1-1v-1.1l.6-1 .4-1-.3-1-.2-1-.4-1.1.7-1-.7-1 .4-1-.3-1v-1l-.2-1.1-.1-1 .9-1-.3-1 .1-1 .2-1.1-.6-1 .1-1 .3-1-.3-1 .7-1-.5-1.1-.5-1 .9-1-.7-1-.1-1-.2-1.1.6-1 .4-1-.2-1-.7-1-.1-1 1.1-1.1-.4-1 .3-1-.4-1v-1l-.5-1 .8-1.1-.9-1 .3-1 .7-1-.5-1 .3-1 .3-1.1-.9-1 .8-1 .1-1-.2-1-.3-1-.3-1.1.6-1-.2-1-.4-1 .2-1v-1l.5-1.1-.5-1-.1-1-.1-1v-1l.5-1 .1-1.1-.4-1v-1l.2-1-.3-1 .3-1 .3-1.1-.2-1-.2-1-.5-1v-1l1-1.1-.8-1 .5-1-.1-1-.5-1 .1-1.1.8-1-.3-1v-1l.1-1-.7-1.1.2-1 .5-1-.9-1 1.1-1-1-1 1-1.1-.8-1 .2-1-.2-1 .1-1-.3-1 .3-1 .3-1 .4-1.1-1-1v-1l.3-1 .1-1-.4-1 .2-1v-1l.3-1v-1.1l-.1-1 .4-1v-1l-.6-1 .3-1-.4-1 .5-1-.2-1-.1-1.1.5-1-.5-1 .2-1-.5-1 .8-1 .1-1-.5-1-.1-1 .8-1-.2-1 .1-1.1-.9-1 .6-1 .4-1-.2-1-.5-1-.1-1-.1-1 .2-1.1.1-1-.6-1 .7-1-.4-1-.5-1 .6-1.1-.8-.9v-1l-.2-1 .3-1.1-.5-.9-.3-1v-1l.3-1.2-1-.7.2-1.2-.8-.8.3-1.1-.5-1-.1-1-1.1-.6.1-1.2-1.2-.5-.5-.9.4-1.4-1.1-.6-.6-.8-.6-.8-1-.5-.5-.9-.5-.9-.9-.5-.4-1-.8-.6-1-.5-.4-1.1-1.3.1-.5-1.2-.8-.6-1.3.2-.8-.7-.9-.4-.7-.9-1.2.3-.9-.5-.9-.7-1.1.3-1-.2-1-.4-1-.2-1-.1-.9-.2-1-.7-1 .3-1-.8-1 .5-1-.4-1-.4-1.1.7-1-.6-1-.1-1-.1-1 .3-1.1-.5-1 .4-1 .3-1 .1-1 .3-1-.1-1.1-.7-1 .8-1 .3-1-.3-1-.2-1 .1-1.1.1-1-.1-1-.3-1 .7-1-.4-1.1-.2-.9.6h-1.1l-1 .2-1 .2-1 .3-1.1-.9-.9.6-1 .3-1 .2-1.1-.5-1 .5-.9.4-1 .2-1.1-.8-1 .5-1-.1-1 .7-1 .2-1 .2-1 .2-1.1-.7-1 .5-1-.1-1 .2-.9.7-1.2-.8-.8 1.1-1 .1-1.1-.6-1 .7-.9.4-1.1-.1-1 .1-1 .1-.9.5-1.2-.8-.9.6-1.1-.3-.9.6-1 .7-1.1-.5h-1l-.9.9-1 .2-.9.3-1.1-.3-1 .3-.9.8-1 .1h-1l-1.1-.2-.9.9-1.1-.3-.8.7h-1.1l-.9.5-1.2-.8-.9.7-1 .1-1 .5-.8.7-1.1-.3-1.1.1h-1l-.8 1.1-1.1-.1-1.1-.3-.7 1.3-1.1-.3-.9.8-.9.3-1.1-.2-.9.7-1.1-.3-1.1-.2-.9.5-.9.6-1 .4-.9.4h-2.2l-.9.4-.9.4-.8.8-1 .1-1 .5-.9.5-.9.5-.9.3-1.1.1-1 .1-.8.8-1.3-.6-.7 1-.9.6-1 .1-.9.5-1.3-.4-.8.7-1 .2-.9.4-.9.4-1 .4-.9.5-1.1-.1-.7 1.1-.9.5-1.2-.5-.9.6-.8.7h-1.1l-.7 1-1 .3-.8.6-1.1.2-1 .1-.7.9-1.1.1-1 .3-.9.6-.9.3h-1.1l-.6 1.3h-1.1l-.9.4-.7.9-1.3-.4-.6 1.1-1 .2-.9.6h-1.1l-.9.5-.8.6-.9.4-.6 1.1-1.3-.3-.8.7-1 .3-.8.7-1 .3-.9.4-.5 1.1-1.1.3-.7.7-1.3-.2-.5 1.2-1 .2-.8.8h-1.1l-.8.6-1.1.2-.9.4-.9.5-.5 1.2-1.3-.2-.6.9-.9.6h-1.1l-.8.7-.7.8h-1.1l-.8.7-1 .3-.5 1.2-.7.8-1.4-.4-.8.7-.7.7-.5 1.2-.9.5-1.1.1-.8.7-.9.4-1.2.1-.5 1.1h-1.2l-.2 1.5-1.2.1-.9.5-.9.4-.6.9-1.2.1-.6.9-.5 1-1.2.1-.9.5-.5 1.1-1.1.1-.5 1.1-1.1.3-.5 1-1.4-.2-.7.7-.5 1-.7.9h-1.2l-.7.8-.8.6-1.1.3-.3 1.2-1.4-.1-.6.9-1 .3-.2 1.4-1 .4-.8.6-1 .4-.5 1-.7.7-1.5-.2-.6.9-.8.7-.9.4-.7.8-.4 1.1-.6.8-1.2.3-.8.6-.4 1h-1.4l-.6.9-.8.6-.3 1.1-.8.6-1.4.1-.3 1.1-.6.9-1.2.1-.7.8-.7.8-.5.9-.9.5-.9.5-.4 1.1-.6.8-1.1.4-.9.6-.5.9-.5.9-1.3.1-.4 1.1-.6.9-1.2.1-.4 1.1-1 .4-.4 1-1.1.4-.8.6-.7.9-.2 1.1-.6.8-.8.7-.5.9-.8.7-1.1.3-.9.6-.5.9-.3 1.1-.6.9-.8.6-1.1.4-.8.6-.8.7-.6.8-.4 1-.2 1.2-1.2.3-.8.7-.1 1.2-.6.9-1.1.4-.5.9-.3 1-.7.8-.8.7-.5.8-.7.7-.5 1-.7.7-1 .5-.5.9-.8.7-.3 1-.8.7-.6.8-.2 1.1-1.2.5-.4.9-.2 1.1-1.2.4.1 1.3-.7.7-1.1.5-.1 1.1-.4 1-.2 1-.9.7-.7.8-.9.6-.3 1-.7.8.2 1.2-.4.9-.4 1-.4.9-.6.8-.2 1.1-.8.7-.4.9-.1 1.1-.7.8-.3.9-.2 1-.8.9.3 1.1-.2 1-1.2.7.6 1.2-.1 1.1-1.3.7.8 1.2-1.3.7-.2 1 .2 1.1-.1 1-.3 1-.3 1 .6 1.1-.9.9.2 1.1-.1 1 .6 1-.2 1-1 1 .3 1 .8 1-.4 1.1-.4 1-.2 1 .9 1-.6 1-.2 1-.2 1 .1 1-.1 1 .8 1.1-.4 1 .5 1-.7 1 .6 1-.4 1 .6 1-.1 1-.4 1-.3 1v1.1l.2 1 .4 1-.8 1 1 1 .1 1-.3 1-.7 1 .6 1-.8 1 .8 1-.8 1 1 1.1-.9 1 .9 1-.1 1-.2 1-.4 1 .2 1 .6 1-.1 1-.1 1-.7 1.1-.1 1 .1 1 .8 1-.3 1-.6 1 .4 1 .4 1-.6 1 .6 1-.3 1.1-.2 1 .5 1 .2 1-.2 1v1l.2 1-.2 1-.5 1.1.5 1-.8 1 .5 1-.2 1-.3 1 .8 1-.7 1 .6 1-.2 1.1.1 1-.6 1 .4 1 .3 1-.5 1-.3 1 .3 1 .6 1.1-.1 1v1l-.4 1-.1 1 .3 1 .1 1-.2 1 .3 1 .3 1.1-.6 1-.2 1-.3 1v2l.2 1 .4 1-.6 1 .6 1.1-.6 1 .8 1-.5 1 .5 1-.3 1 .1 1-.3 1 .5 1.1-.9 1 .6 1 .1 1 .2 1v1l-.1 1-.5 1v1.1l.6 1-.6 1 .4 1-.4 1-.1 1 .7 1-.1 1.1-.6 1 .8 1-.8 1-.1 1 .5 1-.4 1-.1 1 .5 1.1.5 1-.2 1-.2 1-.5 1-.1 1 .9 1-.7 1-.3 1.1-.1 1 .1 1 .7 1-.4 1 .4 1-.7 1.1 1 1-.1 1-.5 1-.2 1 .5 1-.7 1 .6 1.1.1 1-.3 1 .3 1 .2 1-.6 1-.3 1.1.3 1-.2 1-.1 1 .3 1 .3 1-.2 1.1.3 1-.2 1-.5 1 .4 1 .5 1.1-.3 1-.2 1-.5 1 .7 1-.5 1-.1 1.1.3 1 .1 1v1l-.4 1-.2 1 .9 1.1-.7 1v1l-.1 1 .9 1-.7 1.1.7 1-.7 1 .7 1-.2 1 .3 1.1-.6 1 .3 1v1l-.3 1-.5 1 .6 1.1-.1 1-.4 1 .4 1-.1 1-.3 1 .6 1.1-.7 1 .1 1 .2 1 .2 1-.4 1v1.1l.3 1 .5 1v1l-.2 1-.5 1 .7 1.1-.2 1-.2 1 .4 1 .1 1v1l.1 1.1-.6 1 .3 1-.5 1 .4 1-.1 1-.1 1.1-.2 1v1l.3 1 .4 1-.5 1-.5 1.1v1l.4 1-.2 1v1l.2 1 .1 1.1.2 1-.6 1 .2 1 .7 1-.1 1-.3 1 .3 1.1v1l-1 1 .4 1 .1 1-.3 1 .6 1.1v1l-.6 1v1l.2 1 .2 1.1.4 1-.8 1 .3 1v1l.2 1.1-.6 1 .3 1 .3 1 .1 1-.6 1-.2 1.1.3 1 .2 1 .5 1-.6 1 .3 1 .2 1.1-.2 1 .3 1-.1 1-.6 1 .2 1-.4 1 1 1-1.1 1 1 1.1-.5 1-.1 1 .2 1-.4 1 .6 1v2l-.5 1-.1 1 .8 1-.5 1.1.3 1-.4 1 .3 1-.7 1 .2 1z"/><path fill="#58b5f7" d="m489.8 81.4-.1-1.2-.4-1.1.1-1.2-.3-1.2-.1-1.1-.2-1.2-.2-1.1-.3-1.1-.2-1.2-.6-1v-1.2l-.3-1.1-.4-1.1-.5-1.1-.4-1.1-.6-1-.3-1.2-.4-1-.4-1.1-.8-.9-.5-1.1-.3-1.1-.5-1.1-.7-.9-.8-.9-.3-1.2-.7-.9-.7-.9-.6-1.1-.9-.7-.6-1-.8-.9-.8-.8-.5-1.1-.9-.7-.7-1-.7-.9-1-.6-.6-1.1-1-.7-.8-.8-.8-.9-.9-.7-1-.6-.9-.7-.9-.7-.8-.9-.9-.7-1-.6-.9-.7-1.1-.6-.9-.7-1-.6-.9-.6-1-.8-1.1-.4-1-.5-1-.6-.9-.7-1.2-.4-.9-.6-1.1-.4-1-.6-1.1-.6-1.1-.3-1.1-.3-1-.6-1.2-.3-1-.5-1.1-.4-1.1-.3-1.2-.3-1.1-.3-1.1-.4-1.1-.3-1.1-.3-1.2-.1-1.1-.4-1.1-.2-1.2-.1-1.1-.4h-1.2l-1.1-.2-1.1-.3h-1.2l-1.1-.5-1.2.1h-1.2l-1.1-.2-1.2-.2-1.1-.1-1.2.3-1.2-.1h-1.1l-1.2-.3-1.1.1h-1.2l-1.2.1-1.1.1-1.2.1-1.1.2-1.2-.1-1.2.1-1.1.3-1.2-.2-1.1.5-1.2.2-1.2-.1-1.1.2-1.1.3-1.2.2-1.1.4-1.1.3-1.2-.1-1.1.4-1.2.2-1.1.4-1.1.4-1.1.3-1.1.2-1 .8-1.1.3-1.2.2-1.1.4-1 .5-1.1.5-1.1.4-1.1.3-1 .6-1 .7-1 .4-1 .7-1.2.2-1 .6-1.1.5-.9.7-1 .5-1.1.6-1 .6-.8.8-.9.8-1 .6-1.1.5-.9.7-.9.7-.9.7-.9.8-.9.7-.9.8-.9.7-.9.7-.7 1-.9.8-.7.9-.8.8-.8.8-.9.8-.7.9-.9.8-.5 1.1-.8.8-.6 1-.9.8-.6 1-.7 1-.7.9-.8.8-.5 1.1-.7.9-.5 1.1-.5 1-.4 1.1-.6 1-.6 1-.6 1-.4 1.1-.4 1.1-.5 1-.3 1.2-.3 1.1-.7 1-.3 1.1-.3 1.1-.2 1.2-.5 1.1-.1 1.1-.2 1.2-.3 1.1-.4 1.1.1 1.2-.4 1.1.1 1.2-.4 1.1.1 1.2v1.2l-.1 1.1-.1 1.2-.1 1.1-.1 1.2v1.1l.3 1.2v1.2l.2 1.1-.1 1.2.2 1.1.4 1.1.2 1.2v1.2l.2 1.1.2 1.1.5 1.1.2 1.1.3 1.2.5 1 .4 1.1.4 1.1.3 1.1.4 1.1.3 1.1.7 1 .3 1.1.6 1 .4 1.1.7.9.5 1 .5 1.1.8.9.4 1.1.6 1 .8.8.5 1 .8.9.7 1 .5 1 .9.8.6.9.8.9.8.8.8.9.8.8.8.9.7.9 1.1.6.7.9.8.8.9.8 1 .5.8.9.9.7 1.1.5.8.8.9.8 1 .6.9.6.9.8 1 .6 1.2.3.9.8 1 .5 1 .6 1.1.4.9.8 1.1.4 1 .4 1 .6 1.2.2 1 .7 1 .5 1.1.5 1.1.3 1.1.3 1.2.2 1 .5 1.1.3 1.1.4 1.2.2 1.1.4 1 .5h1.2l1.1.5 1.1.2 1.2.2h1.1l1.1.4 1.2.3 1.1.1 1.2.1 1.1.2h1.2l1.1.1 1.2.3 1.1-.1 1.2.3 1.1-.2 1.2.2-.2.2 1.3-.2 1.1.3 1.2-.2h1.2l1.1.1 1.2-.2 1.2-.2h1.1l1.2-.1 1.1-.3h2.4l1.2-.1 1.1-.2 1.1-.2 1.2-.1 1.1-.5 1.2-.1 1.1-.1 1.1-.6 1.2.1 1.1-.4 1.2-.2 1-.5 1.2-.1 1.1-.4 1.1-.3 1.1-.4 1.1-.3h1.2l1.2-.2 1.1-.1 1.2-.1 1.1-.3 1.2.1h1.1l1.2-.4 1.1.3 1.2-.1h1.1l1.2.4 1.1-.1 1.1.5 1.1.2 1.1.4 1.2.2 1 .6 1 .5.9.8 1.1.5.8.8.6 1 1 .7.7.9.7 1 .5 1 .7.9.3 1.2.4 1 .5 1.1.6 1 .1 1.2.4 1.1.6 1 .5 1 .3 1.2.5 1 .9.7 1.1.5 1.1-.3.8-.8.8-.8.6-1 .5-1 .6-1 .7-1 .2-1.1.4-1.1.4-1.1.4-1.1.6-1 .1-1.2.4-1.1.4-1 .3-1.2.2-1.1.4-1.1.2-1.1.4-1.1.2-1.2.1-1.1.5-1.1.2-1.1v-1.2l.4-1.1.3-1.1.2-1.1.3-1.2.3-1.1.2-1.1v-1.2l.5-1.1V136l.4-1.1.3-1.2.1-1.1.2-1.2.1-1.1.2-1.2.2-1.1.1-1.1.1-1.2.4-1.1-.1-1.2.1-1.1.5-1.2-.1-1.1.2-1.2.2-1.1-.1-1.2v-1.2l.3-1.1.3-1.1-.1-1.2.3-1.2.1-1.1-.1-1.2.3-1.1v-1.2l.1-1.2v-3.4l.1-1.2-.1-1.2.1-1.1.1-1.2.2-1.1-.2-1.2v-1.2l.2-1.1-.1-1.2v-1.1l-.1-1.2-.1-1.1v-2.4l-.3.1.1-1.3-.1-1.3z"/><path fill="none" stroke="#163159" stroke-linecap="round" stroke-miterlimit="10" stroke-width="2.25" d="m465.7 75.2-1 1.8-1.1 1.7-1.5 1.5-1.6 1.3-1.8.9-2 .4-2 .2-2-.4-2-.5-1.9-.7-1.9-.9-1.8-.9-1.8-1.1-1.8-.8-1.9-.9-1.8-.8-2-.6-2.1-.2-2.1.1-2.2.3-2.1.8-1.9.9-1.9 1.1-1.8 1.2-1.8 1.2-1.9 1.1-2 .7-2.1.5-2.2.1-2.1-.1-2.1-.3-2-.5-1.9-.9-1.8-1.1-1.7-1.3-1.6-1.3-1.7-1.1-1.9-1-2-.6-2.1-.1-2.1.2-2.1.5-2 .7-1.7 1.2-1.7 1.2-1.8 1.2-1.8 1.1-1.9.9-1.9.8-2.1.2-2.1-.1-2.1-.3-2-.7-2-.6-2-.9-1.8-1m106 16.7-1 1.8-1.1 1.7-1.5 1.5-1.6 1.3-1.8.8-2 .5-2 .1-2-.3-2-.5-1.9-.7-1.9-.9-1.8-.9-1.8-1.1-1.8-.8-1.9-.9-1.8-.9-2-.5-2.1-.2-2.1.1-2.2.3-2.1.7-1.9 1-1.9 1-1.8 1.2-1.8 1.3-1.9 1.1-2 .7-2.1.5-2.2.1-2.1-.1-2.1-.3-2-.6-1.9-.9-1.8-1-1.7-1.3-1.6-1.3-1.7-1.2-1.9-1-2-.5-2.1-.1-2.1.2-2.1.5-2 .7-1.7 1.2-1.7 1.2-1.8 1.2-1.8 1.1-1.9.9-1.9.8-2.1.1h-2.1l-2.1-.3-2-.7-2-.6-2-.9-1.8-1.1"/><path fill="#153159" d="m340.6 306.5-1.2-.1-1.1.1-1.2-.2-1.2.2h-1.1l-1.2-.1-1.2.1-1.1-.1h-1.2l-1.1.1-1.2-.1h-1.2l-1.1.1-1.2-.1h-1.1l-1.2.1-1.2-.1h-3.4l-1.2.1h-2.3l-1.2-.1h-3.5l-1.1-.1-1.2.1-1.1.1-1.2-.1-1.2-.1-1.1.2-1.2-.2-1.1.2-1.2-.1-1.2-.1-1.1.2h-1.2l-1.1-.1-1.2-.1-1.2.1-1.1-.1-1.2.2h-2.3l-1.2-.1-1.2.1-1.1-.1h-1.2l-1.1.1H279l-1.1-.1h-3.5l-1.2.1H272l-1.1-.1h-1.2l-1.2.1-1.1-.1h-1.1l-1-.5-1-.5-.7-.8-.5-.9-.4-1-.1-1.1-.2-1.2.2-1.1-.1-1.2v-2.3l-.1-1.1.1-1.2v-1.1l.1-1.2v-1.1l-.1-1.2v-8l-.1-1.2.1-1.1v-3.5l.1-1.1v-3.5l-.1-1.1.1-1.2v-1.1l-.1-1.2-.1-1.1.1-1.2v-2.3l.1-1.1-.1-1.2v-2.3l.1-1.1v-1.2l-.1-1.1v-2.4l.1-1.1-.2-1.2.1-1.1v-1.2l.1-1.1-.1-1.2v-1.1l.1-1.2-.1-1.2.2-1 .4-1 .5-.9.7-.9.9-.6 1.1-.4 1.1-.1h2.3l1.1.1 1.2-.1 1.2.2h3.4l1.2-.1 1.2-.1h1.1l1.2.2 1.1-.2 1.2.2 1.2-.1h1.1l1.2-.1h2.3l1.2.1h2.3l1.2.1 1.1-.1h2.3l1.2-.1 1.2.2 1.1-.2 1.2.1h2.3l1.1-.1 1.2.2 1.2-.1 1.1-.1 1.2.2 1.2-.2 1.1.1 1.2-.1 1.1.1 1.2-.1 1.2.1h2.3l1.2-.1 1.1.1h2.4l1.1-.1 1.2.2h1.1l1.2-.1 1.2-.1 1.1.2 1.2-.1h2.3l1.2.1h1.2l1.1-.2 1.2.2 1.2-.1 1 .2 1.1.3.9.5.7.9.6.9.4.9.1 1.1.1 1.2-.1 1.1.1 1.2-.1 1.1v2.3l-.1 1.2v1.1l.1 1.2.1 1.1v1.2l-.1 1.1.1 1.2-.1 1.1.1 1.2-.1 1.1-.1 1.2.1 1.1.1 1.2-.1 1.1v2.3l.1 1.2-.1 1.1v1.2l-.1 1.1.1 1.2v5.7l.1 1.2-.1 1.2-.1 1.1.2 1.2-.2 1.1.2 1.2-.1 1.1v1.2l.1 1.1v3.5l-.2 1.1.1 1.2-.1 1.1v1.2l.2 1.2-.1 1.1v3.5l-.2 1.1-.3 1-.6.9-.7.9-.9.5-1 .4z"/><path fill="#e97262" d="M274 250.2v1.2l-.1 1.2v2.3l.1 1.1-.1 1.2v1.2l.1 1.1v3.5l-.1 1.2.1 1.1v2.4l-.1 1.1.1 1.2v2.3l-.1 1.2.1 1.1-.1 1.2.1 1.2v8.1l-.1 1.2v1.2l.1 1.1-.1 1.2.5.8.9-.1.9-.7 1-.7.9-.6.9-.7 1-.6 1-.7.9-.7 1-.6.9-.7 1-.7.9-.6 1-.7.9-.7 1-.7.9-.6 1-.7.9-.7 1-.6.9-.7 1-.7.9-.6.9-.8 1-.6.9-.7 1-.7 1-.6.9-.7 1-.7.9-.7v-1.3l-.9-.7-.9-.7-1-.7-1-.7-.9-.7-.9-.7-1-.6-1-.7-.9-.7-.9-.7-1-.7-1-.7-.9-.7-1-.7-.9-.7-1-.7-.9-.7-.9-.7-1-.7-.9-.7-1-.7-1-.6-.9-.7-.9-.7-1-.7-.9-.8-1-.7-.9-.7-1-.7h-.9z"/><path fill="#b5e0fe" d="m290.7 242.4-.1 1.1.1 1.2v1.2l.1 1.1-.2 1.2v1.2l-.2 1.1-.2 1.1-.1 1.2-.2 1.2-.3 1.1-.2 1.1-.1 1.2-.4 1.1-.4 1.1-.3 1.1-.3 1.1-.3 1.1-.3 1.2-.5 1-.4 1.1-.3 1.1-.5 1.1-.5 1-.3 1.2-.6 1-.6 1-.2 1.2-.8.8-.3 1.2-.8.9-.4 1.1-.7 1-.7.9-.6.9-.5 1.1-.8.9-.6 1-.7.9-.9.8-.6 1-.7.9-.8.8-.8.9-.9.7-.8.9-.8.8-.7 1-.9.7-1 .7-.7.9-1 .6-.9.7-1 .7-.7.9-1 .6-.9.8-1.1.5-.8.8-1 .5-1 .7-1.1.4-.9.7-1.2.4-.9.8-1.1.4-1 .4-1 .6-1.2.4-1 .3-1 .8-1.2.2-1 .4-1.1.4-1.2.2-1.1.4-1 .5-1.2.1-1.1.3-1.2.3-1.1.1-1.1.3-1.2.3-1.1.3-1.1.2h-1.2l-1.1.3-1.2-.1-1.2.2h-3.5l-1.1.1h-2.3l-1.2-.2h-1.2l-1.1-.1-1.2-.1-1.1-.1h-1.2l-1.1-.3-1.2-.1-1.1-.2-1.2-.3-1.1-.4-1.1-.1-1.1-.4-1.2-.2-1.1-.3-1.1-.5-1.1-.2-1.1-.4-1.1-.5-1-.4-1.2-.2-1-.7-1-.5-1.2-.3-.9-.7-1.1-.4-1.1-.5-1-.5-1-.6-1-.5-.9-.8-1.1-.5-.9-.7-1-.6-1-.6-.9-.8-.9-.7-.8-.8-.9-.8-1-.6-.9-.7-.7-.9-.9-.8-.9-.8-.8-.7-.8-.9-.7-.9-.9-.8-.8-.8-.8-.9-.6-1-.8-.9-.6-.9-.8-.9-.6-1-.7-.9-.7-.9-.5-1.1-.6-1-.5-1-.7-1-.6-1-.5-1-.5-1-.7-1-.2-1.2-.4-1.1-.5-1-.7-1-.3-1.1-.3-1.2-.5-1-.4-1.1-.1-1.2-.4-1.1-.5-1.1-.2-1.1-.1-1.2-.3-1.1-.4-1.1-.1-1.2-.1-1.1-.3-1.1v-1.2l-.3-1.2-.1-1.1-.1-1.2v-1.1l.2-1.2-.2-1.2.1-1.1-.1-1.2.2-1.1v-3.5l.2-1.2v-1.1l.3-1.2.1-1.1.1-1.2.4-1.1v-1.2l.4-1.1v-1.2l.4-1.1.3-1.1.5-1 .1-1.2.5-1.1.4-1.1.3-1.1.4-1.1.3-1.1.7-1 .4-1.1.4-1.1.7-.9.4-1.1.6-1 .6-1 .5-1.1.7-.9.4-1.1.7-1 .8-.8.4-1.1.7-1 .8-.8.6-1 .8-.9.7-.9.9-.8.6-1 .8-.9.7-.8.9-.8.8-.8.7-.9.9-.8.9-.7.9-.8.9-.8.9-.7 1-.6.8-.8.9-.8 1.1-.5.8-.8 1-.7 1.1-.3 1-.6.9-.8 1-.5 1-.7 1.1-.4 1-.5 1.1-.6 1-.5 1.1-.3 1.1-.5 1.1-.4 1-.4 1.1-.5 1.1-.5 1.1-.3 1.1-.4 1.1-.1 1.2-.3 1.1-.4 1.1-.1 1.1-.4 1.2-.3h1.1l1.2-.2 1.1-.2h1.2l1.1-.2 1.2-.2 1.1-.2h1.2l1.2.2 1.1-.1 1.2-.2h1.1l1.2.1 1.2.1h1.1l1.2.2 1.1.1 1.2.2h1.2l1.1.3 1.2-.1 1.1.4 1.1.2 1.2.1 1.1.3 1.1.4 1.1.4 1.1.3 1.2.1 1 .5 1.1.5 1.2.1 1.1.4 1.1.5 1 .6 1.1.4 1 .6 1.1.3 1 .6 1 .6 1.1.4.9.7 1.1.5.9.8 1 .5 1.1.5.8.9 1 .6.8.8 1.1.5.9.7.8.9.9.8 1 .5.9.8.7.9.9.8.7.9.9.7.7.9.8.9.7.9.9.8.7.9.8.8.5 1.1.7 1 .7.9.8.9.6.9.6 1 .8.9.5 1.1.5 1 .6 1 .4 1.1.6 1 .6 1 .4 1.1.4 1.1.4 1.1.5 1.1.5 1 .3 1.1.3 1.1.6 1.1.1 1.2.3 1.1.4 1.1.2 1.1.2 1.1.3 1.2.4 1.1.3 1.1v1.2l.2 1.1.2 1.2v2.3l.4 1.1-.1 1.2.1 1.2-.1 1.1z"/><g fill="none" stroke-linecap="round" stroke-miterlimit="10"><path stroke="#153159" stroke-width="5.31" d="m256.3 219.8-1.4.1h-2.7l-1.4-.1-1.4.1H248l-1.3-.1-1.4.1-1.4-.1h-1.4l-1.3.1-1.4-.1h-1.4l-1.4.1h-2.7l-1.4-.1-1.4.1-1.4-.1-1.3.1h-1.4l-1.4-.1-1.4.1-1.4-.1h-2.7l-1.4.1h-1.4l-1.4-.1h-1.4l-1.4.1h-1.3l-1.4-.1-1.4.1-1.4-.1-1.4.1-1.3-.1-1.4.1h-1.4l-1.4-.1-1.4.1-1.3-.1-1.4.1m59.3 22.2h-2.7l-1.4.1h-2.8l-1.4-.1h-4.1l-1.4.1-1.3-.1h-1.4l-1.4.1-1.4-.1h-6.9l-1.3.1-1.4-.1H226l-1.4.1h-1.4l-1.4-.1h-1.3l-1.4.1-1.4-.1-1.4.1-1.4-.1-1.4.1-1.3-.1h-1.4l-1.4.1-1.4-.1-1.4.1-1.3-.1-1.4.1h-2.8l-1.4-.1h-1.3l-1.4.1m59.3 22.2h-5.5l-1.4.1-1.4-.1h-5.5l-1.3.1-1.4-.1h-4.2l-1.3.1-1.4-.1-1.4.1-1.4-.1h-6.9l-1.4.1-1.3-.1h-1.4l-1.4.1-1.4-.1h-13.8l-1.4.1-1.4-.1H197"/><path stroke="#153159" stroke-width="4.72" d="m189.6 205.4-.6 1.2-.5 1.2-.6 1.2-.5 1.2-.6 1.2-.5 1.2-.6 1.2-.6 1.2-.6 1.2-.6 1.2-.6 1.2-.7 1.1-.8 1.1-1 .9-1.3-.4-1-.9-1-1-.9-1-.9-1.1-.8-1.1m14.7 14-.6 1.2-.5 1.3-.6 1.2-.5 1.2-.6 1.2-.6 1.2-.5 1.2-.6 1.2-.6 1.2-.6 1.1-.7 1.2-.6 1.1-.8 1.1-1 .9-1.3-.4-1-.9-1-1-.9-1-.9-1.1-.8-1.1m14.7 14.1-.6 1.2-.5 1.2-.6 1.2-.5 1.2-.6 1.2-.6 1.2-.5 1.2-.6 1.2-.6 1.2-.6 1.2-.7 1.1-.6 1.2-.8 1.1-1 .8-1.3-.4-1-.8-1-1-.9-1.1-.9-1.1-.8-1"/><path stroke="#e97262" stroke-width="4.5" d="M315.1 254.5v1.2l-.1 1.2.1 1.1-.1 1.2.1 1.2-.1 1.2.1 1.2v2.3l-.1 1.2v1.2l.1 1.2v5.9l-.1 1.1.1 1.2v3.6l-.1 1.1.1 1.2v1.2l-.1 1.2v1.2l.1 1.2v1.1m14.3-34.2v9.4l.1 1.2-.1 1.2v22.4"/><path stroke="#153159" stroke-width="18" d="m31.3 795.6 4.6.3 4.6-.4 4.5-1.7 4.6 1.7 4.5-.3 4.6.7 4.6.3 4.5-.8 4.6-1 4.5.8 4.6-1.5h4.6l4.5 1.7 4.6 1.1 4.6-1.2 4.5-.5 4.6.1 4.5.9 4.6-.5 4.6.6 4.5-2.2 4.6 2.5 4.6-2.3 4.5.7 4.6-.3 4.5 1.4 4.6.1 4.6.5 4.5-.8 4.6-1.9 4.5 2.3 4.6.6 4.6-2 4.5 1.4 4.6-.6 4.5-.7 4.6-.1 4.6 1.4 4.5-.3 4.6-2.2 4.6 1.7 4.5.4 4.6-2 4.5 1.4 4.6-1 4.6 1.9 4.5-2.1 4.6 2.6 4.6-.7 4.5-1.2 4.6-.1 4.5-.6 4.6 1.5 4.6-1.5 4.5 1.2 4.6.5 4.5.7 4.6-2 4.6 1.1 4.5-1.6 4.6 2.6 4.6-.3 4.5-1 4.6.8 4.5-.1 4.6.9 4.6-1.5 4.5-1.1 4.6 1.1 4.5.6 4.6.1 4.6-2.3 4.5 2.3 4.6-1.1 4.6-.4 4.5-.2 4.6-.4 4.6 1.3 4.5.4 4.6-.9 4.5-.3 4.6 1.8h4.6l4.5-.2 4.6-1.1 4.6-.2 4.5 1.5 4.6.3 4.5-1.8 4.6 1.6 4.6.4h4.5l4.6-2 4.6 2 4.5-.8 4.6-1.8 4.5 1.7 4.6-.2 4.6-1.3h4.5l4.6 1.5 4.6.5 4.5.2 4.6-1.4 4.5-.5 4.6-.3 4.6 1.1 4.5-.3 4.6.3 4.6 1.1 4.5-1.9 4.6 1.7 4.5.4 4.6-1.5 4.6-1.2 4.5 1.7 4.6-1.9 4.6 1.8 4.5-1.2 4.6 1 4.5.6 4.6-.9 4.6.7 4.5-1.9 4.6 1.7 4.6-.4 4.5-.5 4.6.3 4.6-.4 4.5 2 4.6-2.5 4.5.2 4.6.1 4.6 2.1 4.5-1.1 4.6-1 4.6 2.4 4.5-1.9 4.6.9 4.6 1 4.5-1.5 4.6-1.2 4.5 2h4.6l4.5-2.3 4.6 1.5 4.6-1.5 4.5 1.1 4.6 1.4 4.6-1.9 4.5.4 4.6-1 4.5 1.3 4.6 1.2 4.6-1.1 4.5-.1 4.6-1.3 4.5 2 4.6.1 4.6.8 4.5-.7 4.6.8 4.6-1.1 4.5-.3 4.6-.8 4.6 1.8 4.5-1 4.6-.5 4.5.9 4.6-1.7 4.6.8 4.5-.7 4.6 1.7 4.5.1 4.6-2 4.6 1.5 4.5.7 4.6.3 4.6-1.2 4.5-1.3 4.6 1.9 4.5.8 4.6-2 4.6 1.9 4.5.2 4.6-1.4 4.6-1.4 4.5 2 4.6-.4 4.5-1.3 4.6 1.5 4.6-1.5 4.6 1 4.5.6 4.6-2 4.5.1 4.6 1.9 4.6-1.8 4.5.1 4.6 2.6 4.6-1.5 4.5-.2 4.6-.2 4.5 1.8 4.6-1.6 4.6.1 4.5 1.1 4.6-.4 4.6.4 4.5-1.2 4.6-.5 4.6.6 4.5-.4 4.6 1.3 4.6-.6 4.5.9 4.6-2.5 4.6 2.8 4.5-2.3 4.6-.1 4.6-.3 4.5-.2 4.6 1.4 4.6.6 4.5-1.2 4.6 1.8 4.6-.4 4.5-1 4.6-1.3 4.5 1.2 4.6-.7 4.6.2 4.5 2.1 4.6-2.3 4.6.6 4.5 1.6 4.6-.1 4.6-.8 4.5 1.3 4.6-.7 4.6.4h4.5l4.6-2.1 4.6 1.9 4.5-2 4.6-.4 4.6.4 4.5 1.1 4.6.3 4.6-.7 4.5.3 4.6.5 4.6.9 4.5-1.3 4.6 1.1 4.6-2.7 4.5 2.9 4.6-2.9 4.6 2.7 4.5-.8 4.6-.5 4.6.8"/></g></svg>